<svg xmlns="http://www.w3.org/2000/svg" data-name="Layer 1" viewBox="0 0 100 125" x="0px" y="0px"><defs><style>.cls-1{fill:#231f20;}</style></defs><title>Numbers</title><path class="cls-1" d="M92.19,59.19L92,59c-0.21-.24-5.28-5.72-15.43-2.13L68,58.6,67.76,51,79,18l0-.14a8.18,8.18,0,0,0-.84-6.31,6.57,6.57,0,0,0-4.32-2.9c-5.08-1.07-8.57.73-10.69,5.55L52.88,39.53,50.74,8.85a8.09,8.09,0,0,0-8.14-7.78A8.28,8.28,0,0,0,36.65,3.4a7.3,7.3,0,0,0-2.21,5.25l0.08,23.78a6.29,6.29,0,0,0-2.07-1.19L28.58,30a5.35,5.35,0,0,0-4.41.42,7.26,7.26,0,0,0-3.46,4.8c-0.26,1.13-.48,2.26-0.68,3.4a6,6,0,0,0-2.2-1.39L15,36.27a5.09,5.09,0,0,0-4.23.41,7,7,0,0,0-3.3,4.69A57.2,57.2,0,0,0,6.6,60.11a8.85,8.85,0,0,0,3.71,6.39A6.57,6.57,0,0,0,14,67.67a5.92,5.92,0,0,0,.95-0.09c1.92,24.32,8.15,29.75,18.92,31a66.91,66.91,0,0,0,7.61.32c4.14,0,8.26-.34,11.12-1.39a25.18,25.18,0,0,0,15.21-15l3.84-3.24,17.44-7.75a6.61,6.61,0,0,0,4.28-3.95C94.51,64.44,93.17,60.83,92.19,59.19ZM23.63,35.85a4.27,4.27,0,0,1,2-2.85,2.59,2.59,0,0,1,1.25-.34,2.21,2.21,0,0,1,.74.13l3.89,1.29a3.58,3.58,0,0,1,2.17,4.18,55.61,55.61,0,0,0-.92,19.54,6,6,0,0,1-4.05,6.73h0a4.09,4.09,0,0,1-3.37-.65A6.8,6.8,0,0,1,22.5,59,65.88,65.88,0,0,1,23.63,35.85ZM14.76,64.56A3.36,3.36,0,0,1,12,64a5.94,5.94,0,0,1-2.41-4.25A54.23,54.23,0,0,1,10.41,42a4,4,0,0,1,1.83-2.7A2.32,2.32,0,0,1,13.38,39a2,2,0,0,1,.66.11L16.86,40a3.37,3.37,0,0,1,2,3.88,45.56,45.56,0,0,0-.67,14.92,5.19,5.19,0,0,1-3.46,5.73h0Zm75.77,2a3.64,3.64,0,0,1-2.49,2.17l-18,8-4.85,4.1L65,81.23a22,22,0,0,1-13.51,13.5c-3.25,1.19-8.06,1.61-16.06,1-12.4-1-16.29-10.84-17.64-29.36a8.09,8.09,0,0,0,2.76-3.5,9.2,9.2,0,0,0,3.06,3.51,7.33,7.33,0,0,0,4.07,1.29,6.65,6.65,0,0,0,1.76-.24,9.05,9.05,0,0,0,6.24-10,52.84,52.84,0,0,1-.33-10.09,1.48,1.48,0,0,0,.67.16h0a1.5,1.5,0,0,0,1.5-1.5L37.44,8.64a4.32,4.32,0,0,1,1.32-3.1,5.31,5.31,0,0,1,3.79-1.46A5.1,5.1,0,0,1,47.74,9l2.81,40.22a0.8,0.8,0,0,0,1.53.25L66,15.33c1.52-3.46,3.64-4.56,7.3-3.78a3.6,3.6,0,0,1,2.41,1.57,5.28,5.28,0,0,1,.47,3.94L64.74,50.59l0.31,11.67L77.3,59.75l0.21-.06c7.64-2.75,11.56.57,12.19,1.18C90.44,62.2,91.22,64.67,90.54,66.52Z"/><text x="0" y="115" fill="#000000" font-size="5px" font-weight="bold" font-family="'Helvetica Neue', Helvetica, Arial-Unicode, Arial, Sans-serif">Created by Stephanie Leeson</text><text x="0" y="120" fill="#000000" font-size="5px" font-weight="bold" font-family="'Helvetica Neue', Helvetica, Arial-Unicode, Arial, Sans-serif">from the Noun Project</text></svg>