<svg xmlns="http://www.w3.org/2000/svg" data-name="Layer 1" viewBox="0 0 100 125" x="0px" y="0px"><defs><style>.cls-1{fill:#231f20;}</style></defs><title>Numbers</title><path class="cls-1" d="M84.22,60.73l-0.06-.55-9-8.65V8.8c0-4.5-3.94-8.16-8.79-8.16S57.57,4.3,57.57,8.78L57.26,32A6.17,6.17,0,0,0,54,31H49.34a6.22,6.22,0,0,0-5.82,4.06A6.06,6.06,0,0,0,40,34H35.15a6.11,6.11,0,0,0-5.6,3.68,6.06,6.06,0,0,0-3.61-1.19H21.83a6.11,6.11,0,0,0-6.1,6.1v21a8.12,8.12,0,0,0,2.17,5.52c-0.16,2.9-.22,13.65,6.94,21.61,5.19,5.76,12.94,8.69,23,8.69,22.89,0,28.46-8.72,32.19-17.65C81.27,78.82,84.72,65.48,84.22,60.73ZM66.36,3.64c3.19,0,5.79,2.31,5.79,5.16V48.66l-1.44-1.38a13.68,13.68,0,0,0-6.16-3l-4.36-.92V37.28L60.57,8.8C60.57,6,63.17,3.64,66.36,3.64ZM46.12,37.26A3.22,3.22,0,0,1,49.34,34H54a3.22,3.22,0,0,1,3.22,3.22v5.52l-7.65-1.61a6.5,6.5,0,0,0-3.43.19V37.26Zm0,31.71V57a10,10,0,0,0,2.46,1.48l8.61,3.72V73.37A5.16,5.16,0,0,1,52,78.53H51.28a5.16,5.16,0,0,1-5.16-5.16V69ZM32,40.09a3.1,3.1,0,0,1,3.1-3.1H40a3.1,3.1,0,0,1,3.1,3.1v3.39A6.46,6.46,0,0,0,42,49.56l0.86,2.67c0.08,0.25.18,0.49,0.28,0.73V69A5.16,5.16,0,0,1,38,74.12H37.2A5.16,5.16,0,0,1,32,69V40.09ZM18.73,42.57a3.1,3.1,0,0,1,3.1-3.1h4.11a3.1,3.1,0,0,1,3.1,3.1v21a5.16,5.16,0,0,1-10.32,0v-21Zm58.56,38c-2.79,6.67-6.61,15.8-29.43,15.8-9.19,0-16.18-2.58-20.78-7.68C21.82,82.85,21,75,20.88,71.11a8.11,8.11,0,0,0,8.21-1.3,8.17,8.17,0,0,0,8.11,7.31H38a8.11,8.11,0,0,0,5.35-2,8.17,8.17,0,0,0,8,6.42H52a8.17,8.17,0,0,0,8.16-8.16V63.5l2,0.88a1.5,1.5,0,0,0,1.19-2.75L49.75,55.72a7.12,7.12,0,0,1-4.05-4.4l-0.86-2.67a3.53,3.53,0,0,1,4.09-4.54l15,3.16a10.74,10.74,0,0,1,4.73,2.21l12.61,12.1C81.39,65.95,78.45,77.81,77.3,80.56Z"/><text x="0" y="115" fill="#000000" font-size="5px" font-weight="bold" font-family="'Helvetica Neue', Helvetica, Arial-Unicode, Arial, Sans-serif">Created by Stephanie Leeson</text><text x="0" y="120" fill="#000000" font-size="5px" font-weight="bold" font-family="'Helvetica Neue', Helvetica, Arial-Unicode, Arial, Sans-serif">from the Noun Project</text></svg>