<svg xmlns="http://www.w3.org/2000/svg" xmlns:xlink="http://www.w3.org/1999/xlink" version="1.1" x="0px" y="0px" viewBox="0 0 100 125" enable-background="new 0 0 100 100" xml:space="preserve"><path fill="#000000" d="M74.2,58.4v-46c0-4.4-3.5-7.9-7.9-7.9c-4.4,0-7.9,3.5-7.9,7.9V29c-0.7-1.1-1.8-1.9-3.1-2.4  c-1.2-0.4-2.5-0.8-3.7-1.2c-1.4-0.5-2.9-0.3-4.3,0.4c-1.7,0.9-2.9,2.5-3.4,4.6c-0.7-0.7-1.5-1.3-2.4-1.6c-1.3-0.4-2.6-0.9-3.9-1.3  c-1.4-0.5-2.9-0.3-4.2,0.4c-1.6,0.9-2.8,2.6-3.3,4.6c-0.2,1.1-0.5,2.2-0.7,3.3c-0.6-0.5-1.2-0.9-1.9-1.2c-0.9-0.3-1.9-0.6-2.8-0.9  c-1.3-0.5-2.7-0.3-4,0.4c-1.6,0.9-2.8,2.5-3.2,4.5c-1.3,6.2-1.6,12.5-0.9,18.7c0.3,2.6,1.6,4.9,3.6,6.2c0.3,0.2,0.6,0.4,0.9,0.5  C21,64.1,21,64.3,21,64.5c-0.1,0.3-0.3,30.9,28.6,31.5c0.4,0,0.8,0,1.2,0c30.4,0,33.1-25.2,33.3-26.7C84.5,66.2,81.4,62.7,74.2,58.4  z M58.4,39.9v2.8c0,0.7,0.6,1.3,1.3,1.3s1.3-0.6,1.3-1.3V12.4c0-3,2.4-5.4,5.4-5.4s5.4,2.4,5.4,5.4v44.5c-2.7-1.5-5.8-3.2-9.5-4.9  c-1.2-0.6-2.6-1.1-4-1.3C57.9,47.1,58,43.5,58.4,39.9z M46.4,31.1c0.3-1.4,1.1-2.5,2.2-3.1c0.5-0.3,0.9-0.4,1.4-0.4  c0.3,0,0.6,0,0.9,0.1c1.2,0.4,2.5,0.8,3.7,1.2c1.8,0.6,2.9,2.7,2.4,4.6c-1.3,5.5-1.7,11.3-1.2,17c-1.8,0.1-3.4,0.7-4.7,2.1l-0.3,0.3  C49,55,48.4,57.7,49,60.2c-0.3-0.1-0.5-0.2-0.8-0.4c-1.6-1.1-2.7-2.9-2.9-5c-0.7-6-0.8-11.9,0-17.8c0.1-0.3,0.1-0.5,0.2-0.8  c0.1-0.4,0.1-0.8,0.2-1.2C45.9,33.7,46.1,32.4,46.4,31.1z M32.5,33c0.3-1.3,1.1-2.4,2.1-3c0.5-0.3,0.9-0.4,1.4-0.4  c0.2,0,0.5,0,0.8,0.1c1.3,0.4,2.6,0.9,3.9,1.3c1.5,0.5,2.4,2.1,2.4,3.7c-0.1,0.6-0.2,1.3-0.3,1.9c-1.2,6-1.4,12.3-0.7,18.4  c0.4,3.2-1.4,6.2-4.2,7c-1.2,0.3-2.5,0.1-3.6-0.7c-1.6-1.1-2.6-2.9-2.9-5.1c-0.5-4.3-0.7-8.5-0.4-12.8c0.1-0.6,0.2-1.1,0.3-1.7  c0.2-0.8,0.2-1.7,0.1-2.4C31.6,37.2,32,35.1,32.5,33z M19,57c-0.7-6-0.4-12,0.8-17.9c0.3-1.3,1-2.4,2-2.9c0.5-0.2,0.9-0.3,1.3-0.3  c0.2,0,0.5,0.1,0.7,0.2c0.9,0.3,1.9,0.6,2.8,0.9c1.2,0.4,2,1.6,2.2,2.8c-0.1,0.8-0.2,1.5-0.2,2.3c-0.9,4.5-1.1,9.2-0.5,13.9  c0.4,2.8-1.2,5.3-3.6,6c-1,0.3-2,0-3-0.6C20.2,60.5,19.2,58.9,19,57z M81.6,69.1v0.1c-0.1,1-2,24.4-30.8,24.4c-0.3,0-0.7,0-1.1,0  c-26.4-0.5-26.2-27.8-26.2-29c0,0,0,0,0,0c0.1,0,0.1,0,0.2,0c0.5,0,1-0.1,1.5-0.2c2.2-0.6,3.9-2.2,4.8-4.2c0.7,1.3,1.7,2.4,2.9,3.2  c1.2,0.8,2.6,1.2,3.9,1.2c0.6,0,1.2-0.1,1.7-0.1c2.7-0.7,4.8-2.8,5.7-5.4c0.7,1.2,1.6,2.1,2.7,2.8c1,0.7,2.2,1.1,3.3,1.2  c0.3,0.4,0.6,0.8,1,1.1L63,75.8c0.5,0.5,1.3,0.5,1.8,0s0.5-1.3,0-1.8L53,62.4c-2.2-2.1-2.3-5.5-0.3-7.8l0.3-0.3c1.7-2,5.4-1.4,8.3,0  C79.6,63.2,81.9,67.4,81.6,69.1z"/><text x="0" y="115" fill="#000000" font-size="5px" font-weight="bold" font-family="'Helvetica Neue', Helvetica, Arial-Unicode, Arial, Sans-serif">Created by Stephanie Leeson</text><text x="0" y="120" fill="#000000" font-size="5px" font-weight="bold" font-family="'Helvetica Neue', Helvetica, Arial-Unicode, Arial, Sans-serif">from the Noun Project</text></svg>