<svg xmlns="http://www.w3.org/2000/svg" xmlns:xlink="http://www.w3.org/1999/xlink" version="1.1" x="0px" y="0px" viewBox="0 0 100 125" enable-background="new 0 0 100 100" xml:space="preserve"><path fill="#000000" d="M75.1,44.6l-1.8-19.1c-0.1-1.6-0.9-3-2.1-3.9c-1.2-1-2.7-1.5-4.3-1.3l-4.1,0.4c-1.5,0.1-2.9,0.9-3.9,2.1  c-1.2-1.7-3.2-2.8-5.5-2.6l-3.9,0.4c-2.7,0.2-4.7,2.2-5.3,4.7c-1.1-0.7-2.4-1-3.7-0.9l-4.1,0.4c-1.6,0.1-3,0.9-4,2.2  c-0.5,0.7-0.9,1.5-1.1,2.5c-1-1.2-2.6-2-4.3-2h-3c-3.1,0-5.6,2.5-5.6,5.6V46c0,0.9,0,2,0,3.4v4.4c0,0.8,0.2,1.6,0.4,2.4  c0.9,8.6,3.4,19.5,10.3,26.6c4.5,4.6,10.2,6.9,17.1,6.9c0.5,0,1.1,0,1.7,0c31.7-1.6,33.8-24.1,34.8-34.8l0-0.5  C82.8,53.7,82.9,52,75.1,44.6z M60.8,24.2c0.6-0.7,1.4-1.1,2.3-1.2l4.1-0.4c0.1,0,0.2,0,0.3,0c1.7,0,3.2,1.3,3.3,3l2.8,29.6  c0.3,3-1.9,5.6-4.9,5.9c-3,0.3-5.6-1.9-5.9-4.9l-0.8-8.1l-2-21.5C60,25.8,60.3,24.9,60.8,24.2z M49.8,22.9l3.9-0.4  c0.1,0,0.2,0,0.3,0c1.8,0,3.3,1.4,3.5,3.1l0.1,1.2c0,0,0,0,0,0l2,21.5l1.2,12.4c0.3,3-1.9,5.6-4.9,5.9c-3,0.3-5.6-1.9-5.9-4.9  l-2.8-30.1L47,29.4c0,0,0,0,0,0l-0.3-2.8C46.5,24.8,47.9,23.1,49.8,22.9z M34.5,28.3c0.5-0.7,1.3-1.1,2.2-1.2l4.1-0.4  c0.1,0,0.2,0,0.3,0c0.8,0,1.5,0.3,2.1,0.8c0.7,0.6,1.1,1.4,1.2,2.3l2.6,28.1c0.3,3-1.9,5.6-4.9,5.9c-3.1,0.3-5.6-2-5.8-4.2  l-2.6-28.1C33.6,30.1,33.9,29.1,34.5,28.3z M34.8,55.7L34.8,55.7L34.8,55.7L34.8,55.7z M26.8,44.9c0-1.5,0.4-2.7,1.3-3.4  c1.8-1.6,4.9-1.3,4.9-1.3l1.6,14.2C33.1,54,26.8,52,26.8,44.9z M21.1,43.6l-0.1,0V32.8c0-1.7,1.4-3.1,3.1-3.1h3  c1.7,0,3.1,1.4,3.1,3.1v5.1c-1.2,0.2-2.6,0.7-3.7,1.7c-1.4,1.3-2.2,3.1-2.2,5.3c0,5.1,2.7,8.3,5.6,10.2c-0.6,1.9-2.3,3.3-4.4,3.3  c-1.9,0-3.4-1.1-4.2-2.7C20.7,48.9,21.1,43.8,21.1,43.6z M80.2,54.5c-1,10.8-2.9,31-32.4,32.6C40.9,87.4,35.3,85.4,31,81  c-5.3-5.5-7.9-13.7-9-21.1c1.1,0.6,2.3,1,3.6,1c3,0,5.6-1.9,6.6-4.6c0.5,0.2,0.9,0.3,1.4,0.5l0.3,2.9c0.3,3.6,3.9,6.5,7.8,6.5  c0.2,0,0.5,0,0.7,0h0c2.1-0.2,4-1.2,5.3-2.8c0.9,3.4,4,5.9,7.6,5.9c0.2,0,0.5,0,0.7,0h0c3.9-0.4,6.9-3.5,7.1-7.3  c1.4,1.1,3.1,1.8,5,1.8c0.2,0,0.5,0,0.7,0h0c4.3-0.4,7.5-4.3,7.1-8.6l-0.6-6.6c2.8,2.8,4.5,5,4.8,5.7L80.2,54.5z"/><text x="0" y="115" fill="#000000" font-size="5px" font-weight="bold" font-family="'Helvetica Neue', Helvetica, Arial-Unicode, Arial, Sans-serif">Created by Stephanie Leeson</text><text x="0" y="120" fill="#000000" font-size="5px" font-weight="bold" font-family="'Helvetica Neue', Helvetica, Arial-Unicode, Arial, Sans-serif">from the Noun Project</text></svg>