<svg xmlns="http://www.w3.org/2000/svg" xmlns:xlink="http://www.w3.org/1999/xlink" version="1.1" x="0px" y="0px" viewBox="0 0 100 125" enable-background="new 0 0 100 100" xml:space="preserve"><path fill="#000000" d="M83.4,7.2c-1.3-1.6-3.1-2.7-5.1-3c-4.3-0.7-8.3,2-9,6l-6.8,25.4L62,9.2c0-4.4-3.5-7.9-7.9-7.9  c-2.1,0-4.1,0.8-5.6,2.3c-1.5,1.5-2.3,3.5-2.3,5.6v23.1l-4.5-20.5c-0.3-2.1-1.5-3.9-3.2-5.2c-1.7-1.3-3.8-1.8-5.9-1.4  c-2.1,0.3-3.9,1.5-5.2,3.2c-1.2,1.7-1.7,3.8-1.4,5.9L30.4,42c-2.1-0.6-4.5-0.4-6.5,0.9c-1.9,1.2-3.2,3-3.7,5.1  c-0.5,2.1-0.2,4.4,1,6.3l0.3,0.5c0,0,0,0,0,0.1c-0.1,1-2,24,8.5,36.1c3.8,4.4,8.8,6.7,14.8,7c0.7,0,1.3,0,1.9,0  c18.9,0,27.6-13.8,31.2-22.2c1.4-3.3,0.4-7.2-2.4-9.4l0.9-19.1l8.5-34.4l0-0.1C85.2,10.8,84.6,8.8,83.4,7.2z M22.5,48.6  c0.4-1.5,1.3-2.8,2.6-3.6c0.9-0.6,2-0.8,3-0.8c0.5,0,0.9,0.1,1.4,0.2c1.5,0.4,2.8,1.3,3.6,2.6l6.7,11c1.4,2.3,0.7,5.4-1.7,6.8  l-1.2,0.8c-2.4,1.5-5.6,0.7-7.1-1.7l-6.6-10.9C22.4,51.6,22.2,50.1,22.5,48.6z M75.5,74.8c-3.4,8.1-12,21.5-30.7,20.6  c-5.3-0.3-9.7-2.3-13.1-6.2c-7.5-8.6-8.2-23.8-8.1-30.7l4,6.6c1.4,2.4,4,3.7,6.5,3.7c1.4,0,2.7-0.4,4-1.1l1.2-0.8  c1.2-0.7,2.1-1.7,2.7-2.9c1,2.2,2.3,4.1,3.8,5.5l10,8.3c0.5,0.4,1.3,0.4,1.8-0.2c0.4-0.5,0.4-1.3-0.2-1.8l-9.9-8.2  c-3.3-3.2-5.7-9.1-4.1-14.2c0.3-1,1.1-1.4,1.8-1.6c1.6-0.5,3.7-0.1,5.3,1.2l22.9,15C75.7,69.5,76.6,72.3,75.5,74.8z M82.4,12.3  l-8.5,34.5L73,64.7L52.1,51c-2.3-1.7-5.1-2.3-7.5-1.5c-1.7,0.5-2.9,1.7-3.4,3.2c-0.2,0.6-0.3,1.3-0.4,1.9l-5.5-9  c-0.6-1-1.3-1.8-2.2-2.4c0-0.2,0-0.3,0-0.5l-4.5-28.9c-0.2-1.4,0.1-2.9,1-4c0.8-1.2,2.1-1.9,3.5-2.2c1.4-0.2,2.9,0.1,4,1  c1.2,0.9,1.9,2.1,2.2,3.6l7,31.7c0,0,0,0.1,0,0.1c0,0.1,0,0.1,0.1,0.2c0,0.1,0.1,0.2,0.2,0.2c0,0,0.1,0.1,0.1,0.1  c0.1,0.1,0.2,0.1,0.2,0.2c0,0,0.1,0.1,0.1,0.1c0.1,0.1,0.3,0.1,0.5,0.1c0,0,0,0,0,0c0,0,0,0,0,0c0,0,0,0,0,0c0.1,0,0.2,0,0.3,0  c0,0,0.1,0,0.1,0c0.1,0,0.2-0.1,0.2-0.1c0.1,0,0.1-0.1,0.2-0.1c0.1-0.1,0.1-0.1,0.2-0.2c0.1-0.1,0.1-0.1,0.1-0.2  c0-0.1,0.1-0.1,0.1-0.2c0-0.1,0-0.2,0.1-0.2c0,0,0-0.1,0-0.1V9.2c0-1.4,0.6-2.8,1.6-3.8c1-1,2.4-1.6,3.8-1.6c0,0,0,0,0,0  c3,0,5.4,2.5,5.4,5.5l0.6,35.3c0,0,0,0,0,0.1c0,0.1,0,0.2,0.1,0.2c0,0.1,0,0.2,0.1,0.2c0,0.1,0.1,0.1,0.1,0.2  c0.1,0.1,0.1,0.1,0.2,0.2c0.1,0,0.1,0.1,0.2,0.1c0.1,0,0.1,0.1,0.2,0.1c0,0,0,0,0.1,0c0.1,0,0.1,0,0.2,0c0.1,0,0.1,0,0.2,0  c0,0,0,0,0,0c0,0,0.1,0,0.1,0c0.1,0,0.2,0,0.2-0.1c0.1,0,0.2,0,0.2-0.1c0.1,0,0.1-0.1,0.2-0.1c0.1-0.1,0.1-0.1,0.2-0.2  c0-0.1,0.1-0.1,0.1-0.2c0-0.1,0.1-0.1,0.1-0.2c0,0,0,0,0-0.1l9.1-34.1l0-0.1c0.4-2.7,3.2-4.4,6.1-4c1.4,0.2,2.7,1,3.6,2.1  C82.2,9.8,82.6,11.1,82.4,12.3z"/><text x="0" y="115" fill="#000000" font-size="5px" font-weight="bold" font-family="'Helvetica Neue', Helvetica, Arial-Unicode, Arial, Sans-serif">Created by Stephanie Leeson</text><text x="0" y="120" fill="#000000" font-size="5px" font-weight="bold" font-family="'Helvetica Neue', Helvetica, Arial-Unicode, Arial, Sans-serif">from the Noun Project</text></svg>