<svg xmlns="http://www.w3.org/2000/svg" xmlns:xlink="http://www.w3.org/1999/xlink" version="1.1" x="0px" y="0px" viewBox="0 0 100 125" style="enable-background:new 0 0 100 100;" xml:space="preserve"><style type="text/css">
	.st0{fill:#231F20;}
</style><path class="st0" d="M82.2,55.7L82.2,55.7l-9.9-9.5V33.8c0-3.2-2.6-5.8-5.8-5.8h-4.9c-1.6,0-3,0.6-4.1,1.7c-1-1.8-3-3.1-5.2-3.1  h-4.6c-2.8,0-5.1,1.9-5.8,4.5c-1.1-1-2.5-1.6-4-1.6H33c-1.3,0-2.5,0.4-3.5,1.1v-6.7c0-3.9-3.2-7.1-7.1-7.1s-7.1,3.2-7.1,7.1  l0.1,27.4c0,0.9-0.9,22.7,10.8,35c5.1,5.4,11.9,8.1,20,8.1c22.7,0,28.2-8.6,31.9-17.3C79.3,74.2,82.7,60.4,82.2,55.7z M58.3,33.8  c0-1.8,1.5-3.3,3.3-3.3h4.9c1.8,0,3.3,1.5,3.3,3.3v10.1l-1-1c-1.4-1.3-3.7-2.4-6-2.9l-4.5-1C58.3,39,58.3,33.8,58.3,33.8z   M44.2,32.6c0-1.9,1.6-3.5,3.5-3.5h4.6c1.9,0,3.5,1.6,3.5,3.5v1.2v4.7l-8-1.7c-1.3-0.3-2.5-0.2-3.6,0.2V32.6z M29.6,35.4  c0-1.9,1.6-3.4,3.4-3.4h4.8c1.9,0,3.4,1.6,3.4,3.4v4.2c-1,1.5-1.2,3.4-0.7,5.2l0.7,2.5v17c0,3-2.4,5.4-5.4,5.4H35  c-3,0-5.4-2.4-5.4-5.4V35.4z M44.2,68.7V51.8c0.8,0.7,1.8,1.3,2.8,1.8l8.8,3.8v6.9v4.4c0,3-2.4,5.4-5.4,5.4h-0.8  C46.6,74.1,44.2,71.7,44.2,68.7z M58.3,64.2v-5.8l2,0.9l-1.4,9.4c0,0-0.2,1.1,0.8,1.4c0.7,0.2,1.3-0.2,1.4-0.9l1.5-10.6  c0-0.2,0-0.3,0-0.5c0-0.5-0.3-0.9-0.8-1.1l-14.5-6.4c-1.6-0.8-2.5-2-3.3-3.2c-0.8-1.1-1.1-2.8-1.3-3.8c-0.4-1.8,1.2-3.6,1.2-3.6  c0.9-1,2.3-1.4,3.5-1.1l15,3.2c1.9,0.4,3.7,1.3,4.8,2.3l12.7,12.2c0.1,4.7-3.1,16.8-4.1,19.3c-2.9,6.8-6.7,16-29.7,16  c-7.4,0-13.5-2.5-18.1-7.3c-11-11.5-10.1-33-10.1-33.3l-0.1-27.5c0-2.5,2.1-4.6,4.6-4.6s4.6,2.1,4.6,4.6l0.1,17.8v22.6  c0,4.4,3.5,7.9,7.9,7.9h0.8c2.4,0,4.5-1.1,6-2.8c0.4,4,3.7,7.1,7.9,7.1h0.8c3.4,0,6.2-2,7.3-5c0.5-1.5,0.5-2.7,0.5-2.7V64.2"/><text x="0" y="115" fill="#000000" font-size="5px" font-weight="bold" font-family="'Helvetica Neue', Helvetica, Arial-Unicode, Arial, Sans-serif">Created by Stephanie Leeson</text><text x="0" y="120" fill="#000000" font-size="5px" font-weight="bold" font-family="'Helvetica Neue', Helvetica, Arial-Unicode, Arial, Sans-serif">from the Noun Project</text></svg>