<svg xmlns="http://www.w3.org/2000/svg" xmlns:xlink="http://www.w3.org/1999/xlink" version="1.1" x="0px" y="0px" viewBox="0 0 100 125" enable-background="new 0 0 100 100" xml:space="preserve"><g><path fill="#000000" d="M74.5,30.8l-0.4-0.1L68,33.1l-55.5,0.7c-4.1,0-7.4,3.5-7.4,7.9c0,2.3,0.9,4.4,2.4,5.9c-3.2,1-5.5,4-5.5,7.5   c0,4.4,3.5,7.9,7.9,7.9l27,0.1c-0.2,0.6-0.3,1.2-0.3,1.8v3.5c0,2.6,1.6,4.7,3.9,5.5c-0.7,0.9-1.2,2.1-1.2,3.4v5.4   c0,3.1,2.5,5.6,5.6,5.6h11.6c0.9,0,2,0.1,3.4,0.1c7.7,0,22.2-1.1,30.9-8.7c4.4-3.8,6.7-8.8,7-14.8C99.3,36.8,74.8,30.9,74.5,30.8z    M12.5,36.4l48.8-0.7L43,42.8c-2.4,0.9-4.2,2.6-5.1,4.7c-0.1,0-0.1-0.1-0.2-0.1c-0.1,0-0.1-0.1-0.2-0.1c-0.1-0.1-0.3-0.1-0.5-0.1h0   H12.5c-2.7,0-4.9-2.4-4.9-5.4S9.8,36.4,12.5,36.4z M39.1,68.5V65c0-1.8,1.5-3.4,3.4-3.4h19.2c1.3,0,2.3,1,2.3,2.3v5   c0,1.6-1.3,3-3,3h-2.1H45h-2.5C40.6,71.8,39.1,70.3,39.1,68.5z M41.9,82.8v-5.4c0-1.7,1.4-3.1,3.1-3.1h13.9c1.3,0,2.3,1,2.3,2.3   v6.8c0,1.4-1.1,2.5-2.5,2.5h-1.9c-1.1,0-1.8-0.1-1.9-0.1c-0.2,0-0.4,0-0.6,0.1H45C43.3,85.9,41.9,84.5,41.9,82.8z M95.4,64.8   c-0.3,5.3-2.3,9.7-6.2,13.1c-7,6.1-18.5,7.7-26.2,8c0.4-0.7,0.7-1.5,0.7-2.4v-6.8c0-1-0.3-1.9-0.8-2.6c2.1-0.8,3.6-2.8,3.6-5.1v-5   c0-2.6-2.1-4.8-4.8-4.8H42.5c-1.5,0-2.9,0.6-3.9,1.5L9.9,60.6c-3,0-5.4-2.4-5.4-5.4s2.4-5.4,5.4-5.4l27.1-0.1c0.1,0,0.2,0,0.3-0.1   c0,0,0.1,0,0.1,0c-0.1,1.2,0.3,2.4,1.1,3.3c4,4.9,11.4,6.3,16.7,5.1l15.6-6.9c0.6-0.3,0.9-1,0.6-1.7c-0.3-0.6-1-0.9-1.7-0.6   l-15.2,6.8c-4.5,0.9-10.7-0.2-14.1-4.3c-0.6-0.8-0.6-1.7-0.4-2.4c0.4-1.6,1.9-3.1,3.8-3.8l30.5-11.8C77.4,34.2,96.6,40.3,95.4,64.8   z"/></g><text x="0" y="115" fill="#000000" font-size="5px" font-weight="bold" font-family="'Helvetica Neue', Helvetica, Arial-Unicode, Arial, Sans-serif">Created by Stephanie Leeson</text><text x="0" y="120" fill="#000000" font-size="5px" font-weight="bold" font-family="'Helvetica Neue', Helvetica, Arial-Unicode, Arial, Sans-serif">from the Noun Project</text></svg>