<svg xmlns="http://www.w3.org/2000/svg" xmlns:xlink="http://www.w3.org/1999/xlink" version="1.1" x="0px" y="0px" viewBox="0 0 100 125" enable-background="new 0 0 100 100" xml:space="preserve"><path fill="#000000" d="M91.2,53.1c0-0.1-0.7-9-2.6-12c-5.4-8.6-17.5-15.9-18.8-16.6c-0.4-0.3-0.7-0.6-1.1-0.8  c-4.5-2.6-7.6-1.8-10.9-0.8c-0.6,0.2-1.3,0.4-2,0.5L14.1,33c-1.9,0.4-3.6,1.7-4.5,3.5c-0.9,1.7-1.1,3.8-0.4,5.7l0.4,1  c1.4,3.7,5.1,5.8,9,5.1l19.2-3.5l-12.5,33c-1.4,3.9,0.7,8.3,4.8,9.9c0.9,0.4,1.9,0.5,2.9,0.5c1.1,0,2.2-0.2,3.3-0.7  c1.5-0.7,2.7-1.9,3.5-3.3c0.2,0,0.4,0.1,0.6,0.1c0.2,0,0.3,0,0.5,0c7.9-0.6,23-1.7,24.8-1.7H66l0.3-0.1c0.1,0,5.7-2.8,9.7-4.9  C89.3,70.8,91.6,60.5,91.2,53.1z M35.3,85.2c-1.3,0.6-2.8,0.7-4.2,0.1c-2.8-1-4.3-4-3.3-6.7l13-34.5l12-2.1c0.3,0,0.7-0.1,1-0.1  l-10.2,26L43.2,68c-4.4,1.2-7.5,5.1-7.7,9.6L35.4,79c-0.1,1.4,0.5,2.8,1.5,3.8c0.2,0.1,0.3,0.3,0.5,0.4  C36.9,84.1,36.2,84.8,35.3,85.2z M61.8,49.3l0.3,0.7c0,0.1,0.1,0.2,0.1,0.3l-1,0.2L61.8,49.3z M62.8,52.8c0.3,1.5,0.3,2.8,0.1,3.4  c-0.6,1.9-1.9,3.6-3.7,5.2L53,61.9c-0.4,0-1.6-1-1.9-1.8l-1-2.1l6.2-15.6c1.1,0.5,2.1,1.3,3,2.3c0.4,0.6,0.8,1.2,1.2,1.8  c-0.1,0.1-0.2,0.2-0.2,0.3l-2,4c-0.6,1.2,0.4,2.7,1.8,2.4L62.8,52.8z M54.7,64.3c-1.3,0.6-2.6,1.2-4.1,1.6L46.5,67l2.4-5.8  c0.5,1.2,2.3,3.2,4.1,3.2c0.1,0,0.2,0,0.3,0L54.7,64.3z M74.8,75.2c-3.5,1.9-8.3,4.2-9.4,4.8c-3.4,0.1-23.9,1.6-24.8,1.7  c-0.7,0.1-1.4-0.2-1.9-0.7s-0.8-1.2-0.8-1.9l0.1-1.4c0.2-3.5,2.6-6.4,5.9-7.3l7.5-2.1c7-2.2,12.2-6.5,13.8-11.3  c1-2.9-0.6-9.8-4-13.9c-2.1-2.5-4.6-3.8-7.4-3.8c-0.5,0-0.9,0-1.4,0.1l-34.3,6.2c-2.7,0.5-5.3-1-6.2-3.5l-0.4-1  c-0.4-1.2-0.3-2.5,0.3-3.6c0.6-1.1,1.6-1.9,2.9-2.2l41.7-9.7c0.7-0.2,1.4-0.4,2.1-0.6c3.2-0.9,5.3-1.5,8.9,0.6  c0.3,0.2,0.6,0.4,0.9,0.6l0.2,0.1c0.1,0.1,12.8,7.5,18,15.9c1.3,2,2.2,9.2,2.2,10.8C89.1,59.9,86.9,69.2,74.8,75.2z"/><text x="0" y="115" fill="#000000" font-size="5px" font-weight="bold" font-family="'Helvetica Neue', Helvetica, Arial-Unicode, Arial, Sans-serif">Created by Stephanie Leeson</text><text x="0" y="120" fill="#000000" font-size="5px" font-weight="bold" font-family="'Helvetica Neue', Helvetica, Arial-Unicode, Arial, Sans-serif">from the Noun Project</text></svg>