<svg xmlns="http://www.w3.org/2000/svg" xmlns:xlink="http://www.w3.org/1999/xlink" version="1.1" x="0px" y="0px" viewBox="0 0 100 125" enable-background="new 0 0 100 100" xml:space="preserve"><path fill="#000000" d="M36.8,77.9l-8.7-15l-8.7,15h5.2c-0.5,1.9-1.5,4.2-3.2,5.5c-1.5,1.1-3.4,1.4-5.8,1c-6.3-1.3-6-21.9-3.9-35.4  c0.3-1.6-0.9-3.2-2.5-3.4c-1.6-0.3-3.2,0.9-3.4,2.5c-1,6.6-5.5,39.4,8.6,42.2c1.2,0.2,2.2,0.3,3.2,0.3c3.6,0,6.1-1.4,7.7-2.7  c3.5-2.9,4.9-7.2,5.4-10H36.8z"/><path fill="#000000" d="M97.7,51.3c-0.4-3.1-4-16.3-6.7-20.2l-0.3-0.4l-11.9-3l-6.3-11c-1.6-2.8-5.2-3.8-8-2.2l-4.3,2.4  c-1.4,0.8-2.3,2.1-2.7,3.5c-0.5-0.3-1-0.5-1.5-0.7c-1.5-0.4-3.1-0.2-4.5,0.6l-4,2.3c-2.3,1.3-3.4,4-2.9,6.5c-1.3-0.2-2.6,0-3.8,0.7  l-4.2,2.4c-1.4,0.8-2.3,2-2.7,3.5c-0.1,0.5-0.2,0.9-0.2,1.4l-4.5-7.9c-1.9-3.4-6.3-4.6-9.7-2.7c-1.6,0.9-2.8,2.5-3.3,4.3  c-0.5,1.8-0.3,3.7,0.7,5.4L30.5,60c0.4,0.8,10.4,20.3,26.7,25.2c2.4,0.7,4.9,1.1,7.3,1.1c4.7,0,9.4-1.3,14-4  C98.3,71,98.9,60.8,97.7,51.3z M61.6,19.1l4.3-2.4c0.5-0.3,1.1-0.4,1.6-0.4c0.3,0,0.6,0,0.9,0.1c0.9,0.2,1.6,0.8,2,1.6l5.1,8.9  l-2.7-0.7c-1.9-0.4-4.4-0.3-6.7,0.5l-3.4,1.1l-2.3-4.1C59.4,22.1,60,20,61.6,19.1z M48.8,24.8l4-2.3c0.5-0.3,1.1-0.5,1.7-0.5  c0.3,0,0.6,0,0.9,0.1c0.9,0.2,1.6,0.8,2.1,1.6l2.7,4.7l-8.8,2.8c-0.8,0.3-1.6,0.7-2.2,1.3L48.9,32c0,0,0,0,0,0l-1.4-2.5  C46.5,27.9,47.1,25.7,48.8,24.8z M36.3,36.4c0.2-0.9,0.8-1.6,1.6-2l4.2-2.4c0.5-0.3,1.1-0.4,1.7-0.4c1.2,0,2.3,0.6,2.9,1.7l0.9,1.6  c-0.2,0.4-0.3,0.7-0.4,1.1c-0.5,2.2,0.2,4.4,1.9,6l2.1,1.9c0.8,0.7,1.6,1.2,2.5,1.7L61,58.3c1.5,2.6,0.6,5.9-2,7.4l-0.7,0.4  c-1.3,0.7-2.7,0.9-4.1,0.5c-1.4-0.4-2.6-1.3-3.3-2.5L36.6,38.9C36.2,38.2,36.1,37.3,36.3,36.4z M69.7,45.2l5.7,10  c1.5,2.6,0.6,5.9-2,7.4l-0.7,0.4c-2.6,1.5-5.9,0.6-7.4-2l-2.2-3.8c0,0,0,0,0,0l-6.1-10.7c0.7,0.1,1.3,0,2,0L69.7,45.2z M77.4,80.1  c-6.5,3.7-13,4.6-19.4,2.7c-15.3-4.6-25.1-23.7-25.3-24L19,35c-0.6-1.1-0.8-2.3-0.4-3.5c0.3-1.2,1.1-2.2,2.2-2.8  c2.2-1.3,5-0.5,6.3,1.7l8.7,15.2c0.3,0.6,1.1,0.8,1.7,0.5c0.4-0.2,0.6-0.6,0.6-1.1l1.8,4.5l8.9,15.7c1,1.8,2.7,3.2,4.8,3.7  c0.7,0.2,1.4,0.3,2.1,0.3c1.4,0,2.7-0.4,3.9-1l0.7-0.4c1.9-1.1,3.1-2.8,3.7-4.7c1.5,1.9,3.8,3,6.2,3c1.3,0,2.7-0.3,3.9-1l0.7-0.4  c3.4-1.9,4.8-6.1,3.5-9.6c0.7,0.2,1.3,0.3,2,0.3c0.5,0,1-0.1,1.5-0.2c-0.4-0.8-0.9-1.6-1.3-2.4c-1.9,0.1-3.8-0.9-4.9-2.7l-3-5.2  l1.4-0.2c0.7-0.1,1.2-0.7,1.1-1.4c-0.1-0.7-0.7-1.2-1.4-1.1l-14.8,1.6c-2.2,0.3-4.3-0.4-5.9-1.9l-2.1-1.9c-0.9-0.8-1.3-1.9-1.2-3  c0,0,0-0.1,0-0.1c0-0.2,0-0.3,0.1-0.5c0.3-1.3,1.2-2.4,2.5-2.8L66.8,29c1.9-0.6,3.9-0.8,5.3-0.4l17,4.3c2.4,3.9,5.7,16,6,18.7  C96.1,58.8,97.3,68.7,77.4,80.1z"/><text x="0" y="115" fill="#000000" font-size="5px" font-weight="bold" font-family="'Helvetica Neue', Helvetica, Arial-Unicode, Arial, Sans-serif">Created by Stephanie Leeson</text><text x="0" y="120" fill="#000000" font-size="5px" font-weight="bold" font-family="'Helvetica Neue', Helvetica, Arial-Unicode, Arial, Sans-serif">from the Noun Project</text></svg>