<svg xmlns="http://www.w3.org/2000/svg" xmlns:xlink="http://www.w3.org/1999/xlink" version="1.1" x="0px" y="0px" viewBox="0 0 100 125" enable-background="new 0 0 100 100" xml:space="preserve"><path fill="#000000" d="M84.7,59.7l-0.1-0.5l-8.1-7.5h0.2V28.6c0-3-5.1-6.3-8.8-7.5c-0.8-0.3-1.7-0.5-2.6-0.5h-2.6H62  c-3.7,0-6.7,3-6.7,6.7v4.6c0,0.7,0.1,1.3,0.3,2H52c-2.6,0-4.8,1.6-5.6,3.9c-1-0.8-2.3-1.3-3.7-1.3h-4.9c-2.4,0-4.5,1.5-5.4,3.6  c-1-0.9-2.4-1.4-3.8-1.4h-4.1c-3.2,0-5.9,2.6-5.9,5.9v17.2c0,1.6,0.5,3,1.3,4.3c0,0.1-0.1,0.2-0.1,0.3c0,0.5-1.1,12,6.6,20.5  c5.1,5.7,12.9,8.7,23,8.8c0.3,0,0.6,0,0.9,0c21.7,0,27-8,30.5-16.2C81.9,76.6,85.2,64.1,84.7,59.7z M74.2,28.6v21L71,46.8l-8.4-1.5  v-5.4v-1.2h2.6c3.7,0,6.7-3,6.7-6.7v-4.6c0-0.5,0-0.9-0.1-1.4C73.2,26.9,74.2,27.9,74.2,28.6z M57.8,27.3c0-2.3,1.9-4.2,4.2-4.2h3.2  c2.3,0,4.2,1.9,4.2,4.2v4.6c0,2.3-1.9,4.2-4.2,4.2H62c-2.3,0-4.2-1.9-4.2-4.2V27.3z M48.5,39.8c0-1.9,1.6-3.5,3.5-3.5h4.6  c0.2,0,0.3,0,0.5,0c0.7,0.8,1.6,1.4,2.5,1.7c0.3,0.5,0.5,1.1,0.5,1.7v11.9v18.6c0,3-2.4,5.4-5.4,5.4h-0.8c-3,0-5.4-2.4-5.4-5.4v-3.9  V42.3V39.8z M34.4,42.3c0-1.8,1.5-3.4,3.4-3.4h4.9c1.8,0,3.4,1.5,3.4,3.4v24.1c0,3-2.4,5.4-5.4,5.4h-0.8c-3,0-5.4-2.4-5.4-5.4v-4.8  V44.5V42.3z M21.1,44.5c0-1.8,1.5-3.4,3.4-3.4h4.1c1.8,0,3.4,1.5,3.4,3.4v17.2c0,3-2.4,5.4-5.4,5.4c-3,0-5.4-2.4-5.4-5.4V44.5z   M78.5,78.3C75.8,84.6,72.2,93,50.3,93c-0.3,0-0.6,0-0.9,0c-9.4-0.1-16.5-2.8-21.2-7.9c-5.2-5.8-6-13.4-6-16.8  c1.2,0.8,2.7,1.3,4.3,1.3c2.1,0,4-0.8,5.5-2.2c0.5,3.9,3.8,7,7.9,7h0.8c2.2,0,4.2-0.9,5.6-2.3c0.8,3.5,3.9,6.2,7.7,6.2h0.8  c4.4,0,7.9-3.5,7.9-7.9V51.8v-4l7.3,1.3l12.4,11.3C82.4,64.7,79.4,76.1,78.5,78.3z"/><text x="0" y="115" fill="#000000" font-size="5px" font-weight="bold" font-family="'Helvetica Neue', Helvetica, Arial-Unicode, Arial, Sans-serif">Created by Stephanie Leeson</text><text x="0" y="120" fill="#000000" font-size="5px" font-weight="bold" font-family="'Helvetica Neue', Helvetica, Arial-Unicode, Arial, Sans-serif">from the Noun Project</text></svg>