<svg xmlns="http://www.w3.org/2000/svg" xmlns:xlink="http://www.w3.org/1999/xlink" version="1.1" x="0px" y="0px" viewBox="0 0 100 125" enable-background="new 0 0 100 100" xml:space="preserve"><path fill="#000000" d="M39.8,18.7l-8.8,1l20.3-15L21.1,8c-0.8,0.1-1.4,0.8-1.3,1.7c0.1,0.8,0.8,1.4,1.7,1.3l19.1-2.1l-20.3,15  l19.8-2.2l0.5,4.2l9.2-6.7l-10.4-4.6L39.8,18.7z"/><path fill="#000000" d="M89.6,66.5c-0.3-2.9-3.7-5.4-11-7.9l-9.6-41.5c-0.4-1.9-1.6-3.6-3.3-4.6C64,11.4,62,11.1,60,11.6  c-1.9,0.4-3.6,1.6-4.6,3.3s-1.4,3.7-0.9,5.6l3.4,14.9c-0.9-0.8-2-1.3-3.3-1.5c-1.2-0.1-2.4-0.2-3.6-0.3c-1.4-0.2-2.8,0.3-3.9,1.3  c-1.2,1.1-1.9,2.6-2.1,4.3c-0.6-0.3-1.3-0.6-2.1-0.6c-1.3-0.1-2.5-0.2-3.8-0.4c-1.4-0.2-2.7,0.3-3.8,1.3c-1.3,1.2-2.1,3-2.1,5  c0,1.2,0,2.3,0.1,3.5c-0.7-0.5-1.5-0.8-2.5-0.9c-0.9-0.1-1.8-0.2-2.7-0.3c-1.3-0.1-2.6,0.3-3.6,1.2c-1.3,1.2-2,2.9-2,4.8  c0.1,5.8,1.1,11.6,3.1,17.1c0.8,2.3,2.5,4.1,4.6,4.9c0.3,0.1,0.6,0.2,0.9,0.2c0,0.1,0,0.3,0,0.4c0.1,0.3,5.1,23.3,25.9,23.3  c2.1,0,4.3-0.2,6.6-0.7C92.6,91.9,89.8,67.9,89.6,66.5z M63.2,47.3l-6.3-27.4c-0.3-1.3-0.1-2.6,0.6-3.7c0.7-1.1,1.8-1.9,3.1-2.2  c1.3-0.3,2.6-0.1,3.7,0.6c1.1,0.7,1.9,1.8,2.2,3.1l9.3,40.1c-2.7-0.8-5.9-1.6-9.5-2.5C65,55,63.7,54.9,62.4,55c-0.9-3-1.6-6-2-9  l0.4,1.9c0.2,0.7,0.8,1.1,1.5,0.9C63,48.6,63.4,48,63.2,47.3z M48.9,36.7c0.5-0.4,1.1-0.7,1.7-0.7c0.1,0,0.2,0,0.3,0  c1.2,0.1,2.4,0.2,3.6,0.3c1.7,0.2,3.1,1.8,3.1,3.6c0,5.3,0.8,10.4,2.4,15.4c-1.6,0.5-2.9,1.4-3.8,2.9l-0.2,0.4  c-1.2,2.2-1.2,4.8-0.2,6.9c-0.2,0-0.4-0.1-0.6-0.2c-1.6-0.6-3-2-3.6-3.9c-0.9-2.5-1.7-4.9-2.3-7.5c-0.6-3.2-1-6.4-1-9.6  c0-0.9-0.2-1.8-0.6-2.6c0-0.6,0-1.3,0-1.9C47.6,38.6,48.1,37.4,48.9,36.7z M37.2,41.2c0.5-0.4,1-0.7,1.6-0.7c0.1,0,0.2,0,0.2,0  c1.3,0.1,2.5,0.2,3.8,0.4c1,0.1,1.8,0.7,2.3,1.5c0.2,4.1,0.7,8.1,1.7,12.1c0.5,2.6,1.2,5.1,2.2,7.6c1,2.8,0,5.8-2.3,7.1l0,0  c-1,0.5-2.1,0.6-3.3,0.1c-1.6-0.6-3-2-3.6-3.9c-2.5-6.8-3.8-13.9-3.8-21.2C35.9,43.1,36.4,42,37.2,41.2z M28.2,68.9  c-1.9-5.2-2.9-10.7-3-16.3c0-1.2,0.4-2.3,1.1-2.9c0.4-0.4,0.9-0.6,1.5-0.6c0.1,0,0.1,0,0.2,0c0.9,0.1,1.8,0.2,2.7,0.3  c1.5,0.2,2.7,1.6,2.8,3.2c0.1,4.6,0.9,9.2,2.5,13.6c0.8,2.4,0,5-2,6.1l0,0c-0.8,0.4-1.8,0.5-2.7,0.1C30,71.8,28.8,70.5,28.2,68.9z   M63.4,95.5C40.2,100.3,34.3,77.2,33.8,75c0.5-0.1,1-0.3,1.5-0.5c2-1.1,3.3-3.1,3.6-5.4c1,1.2,2.2,2.2,3.6,2.7  c0.8,0.3,1.7,0.5,2.5,0.5c1,0,2-0.2,2.9-0.7c2.1-1.1,3.4-3.1,3.9-5.4c0.8,0.7,1.6,1.2,2.6,1.6c0.8,0.3,1.7,0.5,2.5,0.5  c0.3,0,0.6,0,0.9-0.1c0.3,0.3,0.6,0.5,1,0.7l13.1,8c0.6,0.4,1.4,0.2,1.7-0.4c0.4-0.6,0.2-1.4-0.4-1.7l-13.1-8  c-2.4-1.4-3.2-4.5-1.9-6.9l0.2-0.4c1.1-2.1,4.5-2.3,7.4-1.7c18.3,4.2,21.3,7.5,21.4,9l0,0.1C87.2,67.8,90.4,89.8,63.4,95.5z"/><text x="0" y="115" fill="#000000" font-size="5px" font-weight="bold" font-family="'Helvetica Neue', Helvetica, Arial-Unicode, Arial, Sans-serif">Created by Stephanie Leeson</text><text x="0" y="120" fill="#000000" font-size="5px" font-weight="bold" font-family="'Helvetica Neue', Helvetica, Arial-Unicode, Arial, Sans-serif">from the Noun Project</text></svg>