<svg xmlns="http://www.w3.org/2000/svg" xmlns:xlink="http://www.w3.org/1999/xlink" version="1.1" x="0px" y="0px" viewBox="0 0 100 125" enable-background="new 0 0 100 100" xml:space="preserve"><g><path fill="#000000" d="M77.4,29.7l-0.2-0.1l-34.7,0c-1.4,0.1-2.6,0.9-3.4,2.2c-0.4,0.6-0.7,1.3-0.9,2H9.9c-4.4,0-7.9,3.5-7.9,7.9   s3.5,7.9,7.9,7.9h25.3c-0.7,1-1.1,2.2-1.1,3.5v4c0,2.6,1.6,4.7,3.9,5.6c-0.8,1-1.4,2.3-1.4,3.7v4.2c0,2.6,1.6,4.7,3.9,5.5   c-0.7,0.9-1.2,2.1-1.2,3.4v3.1c0,3.1,2.5,5.6,5.6,5.6h8.3c1.2,0.1,2.8,0.1,4.8,0.1c8.7,0,23.8-1.2,32.7-9c4.4-3.8,6.8-8.7,7.1-14.7   C99.3,36.9,77.6,29.8,77.4,29.7z M4.5,41.8c0-3,2.4-5.4,5.4-5.4h27.8c0,1.1,0.1,2.3,0.5,3.2l0.8,2c1.3,3.1,4.2,5.2,7.7,5.6l1.5,0.1   h-6h-2.2H9.9C7,47.2,4.5,44.8,4.5,41.8z M36.6,57.2v-4c0-1.9,1.6-3.5,3.5-3.5h2.2h21.5c1.5,0,2.7,1.2,2.7,2.7v5.1   c0,1.7-1.4,3.1-3.1,3.1h-1.7H42.5h-2.4C38.2,60.6,36.6,59.1,36.6,57.2z M39.1,70.7v-4.2c0-1.8,1.5-3.4,3.4-3.4h19.2   c1.3,0,2.3,1,2.3,2.3v5.7c0,1.6-1.3,3-3,3h-2.1H45h-2.5C40.6,74.1,39.1,72.6,39.1,70.7z M41.9,82.8v-3.1c0-1.7,1.4-3.1,3.1-3.1   h13.9c1.3,0,2.3,1,2.3,2.3v4.6c0,1.4-1.1,2.5-2.5,2.5h-5.3c-1.1-0.1-1.8-0.1-1.8-0.1c-0.2,0-0.4,0-0.6,0.1H45   C43.3,85.9,41.9,84.5,41.9,82.8z M95.4,64.8c-0.3,5.2-2.4,9.6-6.2,12.9c-6.8,5.9-17.8,7.7-26.1,8.2c0.4-0.7,0.7-1.5,0.7-2.4v-4.6   c0-1-0.3-1.9-0.8-2.6c2.1-0.8,3.6-2.8,3.6-5.1v-5.7c0-1-0.3-2-0.9-2.7c2-0.9,3.4-2.8,3.4-5.1v-5.1c0-1.7-0.9-3.3-2.2-4.2l4.7,0.3   c0.7,0,1.3-0.5,1.3-1.2c0-0.7-0.5-1.3-1.2-1.3L47,44.6c-2.5-0.2-4.7-1.8-5.6-4l-0.8-2c-0.3-0.7-0.4-1.7-0.3-2.7   c0.2-0.2,0.3-0.5,0.3-0.8c0-0.2,0-0.3-0.1-0.4c0.2-0.6,0.4-1.1,0.6-1.5c0.4-0.7,0.9-1,1.4-1.1h34.3C78.9,32.9,96.7,39.8,95.4,64.8z   "/></g><text x="0" y="115" fill="#000000" font-size="5px" font-weight="bold" font-family="'Helvetica Neue', Helvetica, Arial-Unicode, Arial, Sans-serif">Created by Stephanie Leeson</text><text x="0" y="120" fill="#000000" font-size="5px" font-weight="bold" font-family="'Helvetica Neue', Helvetica, Arial-Unicode, Arial, Sans-serif">from the Noun Project</text></svg>