<svg xmlns="http://www.w3.org/2000/svg" data-name="Layer 1" viewBox="0 0 100 125" x="0px" y="0px"><defs><style>.cls-1{fill:#231f20;}</style></defs><title>Numbers</title><path class="cls-1" d="M76.63,4.31a7.93,7.93,0,0,0-9.25,6.17L61.07,34.09,60.68,9.58a8.16,8.16,0,0,0-8.12-8.19h0a8.16,8.16,0,0,0-8.16,8.13V30.31l-4-18.24A8.18,8.18,0,0,0,31,5.24,8.17,8.17,0,0,0,24.2,14.6l4.32,27.88a9.17,9.17,0,0,0-10.11,2.59,8.23,8.23,0,0,0-1.93,6.25,8.32,8.32,0,0,0,2.66,5.23C18.83,60.76,18,80,27.94,91c4.54,5,10.66,7.57,18.2,7.57h0c24.21,0,29.16-19.8,31.54-29.32,0.14-.56.27-1.09,0.4-1.58a8.1,8.1,0,0,0-4-9.13L75,47.71l8.46-34.44,0-.12A7.92,7.92,0,0,0,76.63,4.31ZM20.71,47a6,6,0,0,1,4.62-2.1A6.11,6.11,0,0,1,29,46.14l7.86,6a5.68,5.68,0,0,0-2.09,3.53,14.89,14.89,0,0,0,1,8.08,5.38,5.38,0,0,1-3.75-1.06l-10.46-8A5.41,5.41,0,0,1,19.47,51,5.26,5.26,0,0,1,20.71,47ZM75.18,67c-0.13.5-.26,1-0.41,1.61-2.36,9.45-6.76,27-28.63,27h0c-6.65,0-12-2.21-16-6.58C22.25,80.27,21.84,65,22,58.82l8.21,6.26a8.39,8.39,0,0,0,5.1,1.7,8.55,8.55,0,0,0,2.08-.27,11.63,11.63,0,0,0,5.73,4l14,4.38a1.5,1.5,0,1,0,.9-2.86l-14-4.38c-5-1.62-7-7.16-6.29-11.56A2.78,2.78,0,0,1,39,54.27c1.4-1,3.67-1.29,6.24-.82l26.52,7.41a1.49,1.49,0,0,0,.5.17A5.14,5.14,0,0,1,75.18,67Zm5.34-54.35L72,47.11,71.16,57.59,46,50.54l-0.13,0a13.52,13.52,0,0,0-6,.12l-8.48-6.47a1.49,1.49,0,0,0,.26-1.09L27.16,14.13a5.17,5.17,0,0,1,.92-3.86,5.11,5.11,0,0,1,3.36-2.06,5.2,5.2,0,0,1,5.92,4.42l7,31.66h0v0a1.48,1.48,0,0,0,.18.43l0,0a1.5,1.5,0,0,0,.29.33L45,45.18a1.49,1.49,0,0,0,.38.21l0.07,0a1.49,1.49,0,0,0,.44.08h0l0.28,0h0l0.1,0,0.18-.06,0.12-.06,0.13-.08,0.11-.09L46.94,45,47,44.92l0.09-.12,0.07-.12,0.07-.13a1.48,1.48,0,0,0,0-.15s0-.09,0-0.13a1.49,1.49,0,0,0,0-.19s0-.06,0-0.1v0h0V9.52a5.16,5.16,0,0,1,5.16-5.13h0A5.16,5.16,0,0,1,57.68,9.6l0.56,35.3s0,0.06,0,.09a1.47,1.47,0,0,0,0,.15s0,0.09,0,.14l0,0.13,0.06,0.14,0.07,0.12,0.09,0.12,0.09,0.11L58.76,46l0.11,0.09L59,46.17l0.12,0.06,0.15,0.06,0.08,0h0l0.15,0,0.16,0h0.14l0.17,0,0.13,0,0.15,0,0.12-.06,0.13-.08,0.11-.08,0.12-.1,0.09-.09,0.1-.12L61,45.62l0.07-.13,0.06-.15,0-.08,9.1-34.08,0-.15A5.19,5.19,0,0,1,80.52,12.61Z"/><text x="0" y="115" fill="#000000" font-size="5px" font-weight="bold" font-family="'Helvetica Neue', Helvetica, Arial-Unicode, Arial, Sans-serif">Created by Stephanie Leeson</text><text x="0" y="120" fill="#000000" font-size="5px" font-weight="bold" font-family="'Helvetica Neue', Helvetica, Arial-Unicode, Arial, Sans-serif">from the Noun Project</text></svg>