<svg xmlns="http://www.w3.org/2000/svg" data-name="Layer 1" viewBox="0 0 100 125" x="0px" y="0px"><defs><style>.cls-1{fill:#231f20;}</style></defs><title>Numbers</title><path class="cls-1" d="M80.86,57.78a8.84,8.84,0,0,0-1.58-2.35,95.38,95.38,0,0,0,2.47-14.31c0.13-1.08.26-2.22,0.42-3.44a5.21,5.21,0,0,0-1.45-4.2A7.72,7.72,0,0,0,75,31.08l-4.22.13a6,6,0,0,0-4.86,2.7L65.48,9.07A8.16,8.16,0,0,0,57.36.88h0A8.16,8.16,0,0,0,49.17,9V28.85L45.11,11.5a8.18,8.18,0,0,0-9.32-6.76A8.09,8.09,0,0,0,30.46,8,8.19,8.19,0,0,0,29,14.17L33.57,35.6,26.8,22.91A7.35,7.35,0,0,0,12.91,27.7L23.46,51.9c-0.3,3.3-1.74,24.54,8.93,37.44,4.73,5.71,11.15,8.94,19.1,9.58,1.75,0.14,3.4.21,5,.21,27,0,30.68-19.54,30.9-20.9C87.95,75.33,85.75,68.45,80.86,57.78ZM67.64,37.3c0.68-3,2.59-3.06,3.2-3.09l4.21-.13H75.2a4.72,4.72,0,0,1,3.31,1.44,2.28,2.28,0,0,1,.68,1.79c-0.15,1.23-.29,2.37-0.42,3.46a97.29,97.29,0,0,1-2.1,12.73,8.85,8.85,0,0,0-5.38-.78l-0.38.06a8.89,8.89,0,0,0-5.85,3.78,5.74,5.74,0,0,1-.18-3.27,87.28,87.28,0,0,0,1.65-9.38C66.83,41.69,67.12,39.59,67.64,37.3Zm16.8,40.37,0,0.1c-0.11.84-3.17,20.56-32.68,18.16-7.11-.58-12.84-3.44-17-8.5C24.17,74.69,26.46,52,26.49,51.81l0-.4L15.73,26.69A4.35,4.35,0,0,1,24,24L35.93,46.37l0,0.06,0,0.07a1.49,1.49,0,0,0,.3.34h0a1.49,1.49,0,0,0,.4.22l0.06,0a1.5,1.5,0,0,0,.44.08h0.1l0.18,0h0.08l0.05,0,0.15,0L37.91,47,38,47l0.07,0,0.13-.09,0.11-.09,0.1-.1,0.09-.11,0.08-.12,0.07-.13,0.06-.14,0-.13a1.48,1.48,0,0,0,0-.15s0-.1,0-0.14,0-.09,0-0.14a1.48,1.48,0,0,0,0-.16s0-.05,0-0.08L32,13.63a5.17,5.17,0,0,1,.92-3.86A5.11,5.11,0,0,1,36.25,7.7,5.18,5.18,0,0,1,42.15,12l7.05,30.16s0,0.07,0,.1a1.49,1.49,0,0,0,.06.17l0.07,0.12,0.08,0.13,0.09,0.1,0.1,0.12L49.72,43l0.14,0.11,0.09,0,0.17,0.08,0.1,0,0.18,0h0.44l0.15,0h0l0.11,0,0.15-.05,0.13-.07,0.12-.07,0.12-.1,0.1-.09,0.09-.11,0.09-.11L52,42.53l0.07-.13s0-.1,0-0.14,0-.09,0-0.13a1.5,1.5,0,0,0,0-.17s0-.07,0-0.11V9a5.12,5.12,0,0,1,1.53-3.64,4.93,4.93,0,0,1,3.65-1.49,5.16,5.16,0,0,1,5.13,5.21L63,44.39a1.49,1.49,0,0,0,.28.85C63,47.43,62.65,49.77,62,52.6a8,8,0,0,0,1.72,7.33,8.87,8.87,0,0,0,.18,4L67.73,77.5a1.5,1.5,0,1,0,2.88-.82L66.76,63.16a5.88,5.88,0,0,1,4.66-7.41l0.38-.06A5.88,5.88,0,0,1,78.14,59C84.62,73.18,84.6,76.87,84.44,77.66Z"/><text x="0" y="115" fill="#000000" font-size="5px" font-weight="bold" font-family="'Helvetica Neue', Helvetica, Arial-Unicode, Arial, Sans-serif">Created by Stephanie Leeson</text><text x="0" y="120" fill="#000000" font-size="5px" font-weight="bold" font-family="'Helvetica Neue', Helvetica, Arial-Unicode, Arial, Sans-serif">from the Noun Project</text></svg>