<svg xmlns="http://www.w3.org/2000/svg" data-name="Layer 1" viewBox="0 0 100 125" x="0px" y="0px"><defs><style>.cls-1{fill:#231f20;}</style></defs><title>Numbers</title><path class="cls-1" d="M95.65,59.24c-2.17-3.89-5.88-5.41-11.65-4.78L67.59,58.93,67.74,48.3l7.49-36a7.36,7.36,0,0,0-1.54-5.76,8.56,8.56,0,0,0-11.3-1.81,7.35,7.35,0,0,0-3.25,4.91L52.83,33.25,52.43,8.74A8.16,8.16,0,0,0,44.31.54h0a8.16,8.16,0,0,0-8.16,8.13v22l-4-19.47A8.19,8.19,0,0,0,22.74,4.4,8.17,8.17,0,0,0,16,13.78l4,22.68-2.18-5.65A7.35,7.35,0,0,0,3.59,34.72L10.6,60c0.29,3,4.3,39.45,27.58,39.45s30.77-12.9,32.09-15.59L92.94,69.94a4.69,4.69,0,0,0,3-2.73A9.49,9.49,0,0,0,95.65,59.24ZM93.2,66a1.69,1.69,0,0,1-1.12,1.1l-0.27.05L67.9,81.81l-0.19.45c-0.06.14-6.18,14.2-29.54,14.2-21,0-24.57-36.49-24.6-36.86L6.48,33.93a4.35,4.35,0,0,1,8.39-2.26l7.78,20.17a1.48,1.48,0,0,0,.09.18l0,0.06a1.48,1.48,0,0,0,.29.34l0.07,0.06a1.5,1.5,0,0,0,.38.22l0.08,0a1.49,1.49,0,0,0,.45.08h0l0.18,0h0.08l0.1,0,0.18,0h0l0.22-.11,0.05,0L25,52.45a1.49,1.49,0,0,0,.23-0.24l0,0A1.5,1.5,0,0,0,25.37,52l0.06-.1s0-.08,0-0.12a1.35,1.35,0,0,0,.09-0.45s0,0,0,0a1.49,1.49,0,0,0,0-.27h0L18.92,13.29a5.17,5.17,0,0,1,.92-3.86,5.11,5.11,0,0,1,3.37-2.06,5.2,5.2,0,0,1,5.91,4.4l7,33.81h0v0a1.49,1.49,0,0,0,.08.26,1.45,1.45,0,0,0,.07.14l0.07,0.12,0.12,0.15,0.06,0.08,0.14,0.12,0.08,0.06,0.16,0.09L37,46.66l0.21,0.06,0.07,0a1.5,1.5,0,0,0,.51,0h0.1l0,0,0.23-.07,0.12-.07,0.13-.07,0.13-.1,0.1-.08,0.1-.12,0.08-.11L38.94,46,39,45.85a1.5,1.5,0,0,0,.06-0.18s0-.06,0-0.09a1.49,1.49,0,0,0,0-.31V8.68a5.16,5.16,0,0,1,5.16-5.13h0a5.16,5.16,0,0,1,5.13,5.21L50,44.06s0,0.06,0,.09a1.49,1.49,0,0,0,0,.16s0,0.09,0,.14l0,0.14,0.06,0.13,0.07,0.12,0.08,0.12,0.09,0.11,0.1,0.1,0.11,0.09,0.12,0.08,0.12,0.07L51,45.45l0.08,0h0l0.15,0h0.31l0.15,0,0.15,0,0.12,0,0.15-.07,0.1-.06,0.14-.1,0.1-.08L52.63,45l0.09-.11,0.08-.13,0.06-.12,0.06-.15,0-.08,9.1-34.08,0-.15a4.38,4.38,0,0,1,2-3A5.56,5.56,0,0,1,71.33,8.4a4.36,4.36,0,0,1,.95,3.36L64.77,47.83l-0.24,15,19.9-5.45c5.62-.58,7.45,1.23,8.6,3.3A6.62,6.62,0,0,1,93.2,66Z"/><text x="0" y="115" fill="#000000" font-size="5px" font-weight="bold" font-family="'Helvetica Neue', Helvetica, Arial-Unicode, Arial, Sans-serif">Created by Stephanie Leeson</text><text x="0" y="120" fill="#000000" font-size="5px" font-weight="bold" font-family="'Helvetica Neue', Helvetica, Arial-Unicode, Arial, Sans-serif">from the Noun Project</text></svg>