<svg xmlns="http://www.w3.org/2000/svg" data-name="Layer 1" viewBox="0 0 100 125" x="0px" y="0px"><defs><style>.cls-1{fill:#231f20;}</style></defs><title>Numbers</title><path class="cls-1" d="M86,40.76l-6.3-13.58a6.75,6.75,0,0,0-3.79-3.5l-18.65-7a11.31,11.31,0,0,0-11.22,1.94h0l-0.21,0-0.19,0c-5.27-.54-8.32,1.55-12.73,5a8.74,8.74,0,0,0-1.17,1.12L21,37.2a31.57,31.57,0,0,0-7.17,14.23,14.53,14.53,0,0,0-.37,4c0.68,7.73,3.93,21.4,18,26.12A34.86,34.86,0,0,0,44.38,84a54.35,54.35,0,0,0,15-2.47C60.24,81.3,61,81.1,61.55,81c0,0,4.55-1.14,6-2.46,6.84-6.16,10.57-10.23,11.11-12.11l3.69-13a5.33,5.33,0,0,0-.57-4.23l0.1,0A6,6,0,0,0,86,40.76ZM56.18,19.67l8.57,3.2L50.56,19.67A8.09,8.09,0,0,1,56.18,19.67ZM79.33,52.56l-3.69,13c-0.28,1-3.59,4.69-10.18,10.63a18.6,18.6,0,0,1-4.63,1.73c-0.63.15-1.39,0.36-2.27,0.61-5.39,1.51-15.42,4.32-26,.14-11.85-4-15.22-14.93-16-23.43a11.47,11.47,0,0,1,.32-3.14,28.41,28.41,0,0,1,6.46-12.8L34.14,26.81a5.58,5.58,0,0,1,.74-0.71c4-3.18,6.16-4.45,9.16-4.45,0.38,0,.78,0,1.2.06l20.09,4.52,0.19,0c3.22,0.33,6,3.91,8.21,7.33l4.52,7.49c0.73,1.19-.27,2.69-0.71,3.16a5.2,5.2,0,0,1-2.63,1.47c-2.07.49-5.22-1-8.48-4l-6.06-5.29a8.65,8.65,0,0,0-6.16-2.3l-3.38.11a8.72,8.72,0,0,0-7.94,5.86l-2.47,7.21A8.51,8.51,0,0,0,40,49a15.54,15.54,0,0,0,1.54,8.61c2.87,5.82,18.28,4.55,19.58,4.08l0.41-.15a8.63,8.63,0,0,0,4.91-4.44L67.94,54A7.91,7.91,0,0,1,76,49.6l1.46,0.19a2.15,2.15,0,0,1,1.56,1A2.18,2.18,0,0,1,79.33,52.56ZM47.11,44l8.3-6.65a5.55,5.55,0,0,1,2.86,1.41l6.06,5.29a23,23,0,0,0,5.32,3.76,11,11,0,0,0-4.55,4.87L63.61,55.8a5.49,5.49,0,0,1-3.12,2.82l-0.37.13c-1.86.51-14.16,0.7-15.73-2.5a12.48,12.48,0,0,1-1.31-5.47A24.81,24.81,0,0,1,47.11,44ZM46,40.87a5.55,5.55,0,0,1,4.27-3.42Zm37.16,3.69a2.87,2.87,0,0,1-1.95,1.54,7.94,7.94,0,0,1-1.25.17c1.55-1.74,2.45-4.48,1-6.84L76.4,31.91a26.29,26.29,0,0,0-6-6.94l4.45,1.66a3.62,3.62,0,0,1,2,1.88l6.3,13.58A2.86,2.86,0,0,1,83.14,44.57Z"/><text x="0" y="115" fill="#000000" font-size="5px" font-weight="bold" font-family="'Helvetica Neue', Helvetica, Arial-Unicode, Arial, Sans-serif">Created by Stephanie Leeson</text><text x="0" y="120" fill="#000000" font-size="5px" font-weight="bold" font-family="'Helvetica Neue', Helvetica, Arial-Unicode, Arial, Sans-serif">from the Noun Project</text></svg>