<svg xmlns="http://www.w3.org/2000/svg" xmlns:xlink="http://www.w3.org/1999/xlink" version="1.1" x="0px" y="0px" viewBox="0 0 100 125" enable-background="new 0 0 100 100" xml:space="preserve"><path fill="#000000" d="M85.2,57.5c-1-2.4-2.4-4.6-3.8-6.3c1.7-0.9,2.9-2.7,2.9-4.8V26.8c0-3.2-2.6-5.8-5.8-5.8h-5.2  c-1.2,0-2.4,0.4-3.3,1.1c0-3.3-2.7-6-6-6h-5c-2.8,0-5.2,1.9-5.8,4.6c-1-0.7-2.2-1.2-3.5-1.2h-5.2c-3.2,0-5.9,2.6-5.9,5.9v3.3  c-0.9-0.6-2-0.9-3.1-0.9h-3.9c-3,0-5.5,2.4-5.6,5.4c-0.3,1.9-5.5,32.6,6.6,47.5c4.1,5,9.7,7.6,16.6,7.8c1.2,0,2.4,0,3.6,0  c21.9,0,24.3-6,27.5-13.4c0.1-0.2,0.2-0.6,0.5-1C83.6,67.6,86.4,60.6,85.2,57.5z M73.3,23.5h5.2c1.8,0,3.3,1.5,3.3,3.3v19.7  c0,1.4-1,2.5-2.2,2.8c-1.6-1.2-4.2-1.8-4.8-1.9l-4.6,0c-0.1-0.4-0.2-0.7-0.2-1.2v-0.5V26.8C69.9,25,71.4,23.5,73.3,23.5z M55.5,22.1  c0-1.9,1.6-3.5,3.5-3.5h5c1.9,0,3.5,1.6,3.5,3.5v4.8v18.9c0,0.6-0.2,1.2-0.6,1.6l-5.4,0c-1.2-0.2-2.9,0.1-4.6,0.5  c-0.8-0.6-1.3-1.5-1.3-2.5v-0.8V25.3V22.1z M41.1,25.3c0-1.8,1.5-3.4,3.4-3.4h5.2c1.8,0,3.4,1.5,3.4,3.4v19.2c0,1.3-1,2.3-2.3,2.3  h-6.7c-1.6,0-3-1.3-3-3V33.3V25.3z M28.5,33.3c0-1.7,1.4-3.1,3.1-3.1h3.9c1.7,0,3.1,1.4,3.1,3.1v10.5v3.4c0,1.3-1,2.3-2.3,2.3H31  c-1.4,0-2.5-1.1-2.5-2.5V33.3z M78.4,73.1c-0.2,0.5-0.4,0.9-0.5,1.1c-3.1,7.5-5.2,12.4-28.6,11.8c-6.2-0.2-11.1-2.5-14.7-6.9  c-5.9-7.3-7.4-19.1-7.4-28.8c0.9,1.1,2.3,1.8,3.8,1.8h5.4c2.3,0,4.2-1.6,4.7-3.7c0.9,0.6,1.9,1,3.1,1h6.7c1.2,0,2.2-0.4,3.1-1.1  c0.1,0.2,0.3,0.4,0.4,0.6c-1.2,0.5-2.2,1-2.8,1.4L42,58.7c-1.5,1.1-2.3,2.9-2.2,4.8c0.2,1.9,1.3,3.6,3.1,4.4c4,1.9,10,3.9,15.7,0.4  l7.8-4.7c0.6-0.4,0.8-1.1,0.4-1.7c-0.4-0.6-1.1-0.8-1.7-0.4l-7.8,4.7c-3.5,2.2-7.7,2.1-13.3-0.5c-0.9-0.4-1.6-1.3-1.7-2.3  c-0.1-1,0.3-2,1.2-2.6l9.3-8.5c1.8-1.2,6.6-2.7,8.2-2.3l13.3,0c1.4,0.3,3.5,1.1,4.1,1.8c1.4,1.6,3.3,4.1,4.4,6.8  C83.3,59.6,82.9,63,78.4,73.1z"/><text x="0" y="115" fill="#000000" font-size="5px" font-weight="bold" font-family="'Helvetica Neue', Helvetica, Arial-Unicode, Arial, Sans-serif">Created by Stephanie Leeson</text><text x="0" y="120" fill="#000000" font-size="5px" font-weight="bold" font-family="'Helvetica Neue', Helvetica, Arial-Unicode, Arial, Sans-serif">from the Noun Project</text></svg>