<svg xmlns="http://www.w3.org/2000/svg" xmlns:xlink="http://www.w3.org/1999/xlink" version="1.1" x="0px" y="0px" viewBox="0 0 100 125" enable-background="new 0 0 100 100" xml:space="preserve"><path fill="#000000" d="M97.8,63.2c-1.7-3.1-5.1-6.6-11.8-5.8l-15.4,1.9V44.5v-2.2c0-3.1-2.5-5.6-5.6-5.6h-4.9  c-1.5,0-2.9,0.5-3.9,1.4c-0.8-2.3-3-4-5.6-4h-4c-2.6,0-4.7,1.6-5.6,3.9c-1-0.8-2.3-1.4-3.7-1.4H33c-3.2,0-5.9,2.6-5.9,5.9V45  l-6-15.5c-1-3.7-4.9-6-8.7-4.9c-1.8,0.5-3.4,1.7-4.3,3.3c-0.9,1.6-1.2,3.6-0.7,5.4l7,25.3c0.3,2.8,4.2,39.3,27.3,39.2c0,0,0,0,0.1,0  C66.5,97.8,71.3,84.5,72.2,81l22.9-7.5c1.3-0.3,2.4-1.2,3-2.6C99.1,68.6,99,65.2,97.8,63.2z M60.1,39.1H65c1.7,0,3.1,1.4,3.1,3.1  v2.2V62v0.7c0,2.1-1.7,3.8-3.8,3.8h-4c-2.1,0-3.8-1.7-3.8-3.8v-20C56.5,40.7,58.1,39.1,60.1,39.1z M43.1,40.1c0-1.9,1.6-3.5,3.5-3.5  h4c1.9,0,3.5,1.6,3.5,3.5v2.6v20v1.1c0,1.5-1.2,2.7-2.7,2.7h-5.1c-1.7,0-3.1-1.4-3.1-3.1v-1.7V42.5V40.1z M29.6,42.5  c0-1.8,1.5-3.4,3.4-3.4h4.2c1.8,0,3.4,1.5,3.4,3.4v19.2c0,1.3-1,2.3-2.3,2.3h-5.7c-1.6,0-3-1.3-3-3V42.5z M95.8,69.9  c-0.3,0.7-0.8,1.1-1.3,1.2l-24.5,8l-0.1,0.8c0,0.2-2.1,15.4-28,15.5c0,0,0,0-0.1,0C20.6,95.4,17,58.7,17,58.3L9.9,32.7  c-0.3-1.2-0.2-2.4,0.5-3.5c0.6-1.1,1.6-1.8,2.8-2.1c2.5-0.7,5,0.8,5.6,3.2l7.8,20.1c0.1,0.3,0.3,0.5,0.6,0.6V61c0,3,2.4,5.5,5.5,5.5  h5.7c1,0,2-0.3,2.7-0.9c0.9,2,2.8,3.4,5.1,3.4h5.1c1.8,0,3.3-0.9,4.2-2.2c1.2,1.3,2.9,2.2,4.8,2.2h4c3.5,0,6.3-2.8,6.3-6.3v-1  l15.7-1.9c4.3-0.5,7.4,1.1,9.4,4.6C96.4,65.8,96.5,68.3,95.8,69.9z"/><text x="0" y="115" fill="#000000" font-size="5px" font-weight="bold" font-family="'Helvetica Neue', Helvetica, Arial-Unicode, Arial, Sans-serif">Created by Stephanie Leeson</text><text x="0" y="120" fill="#000000" font-size="5px" font-weight="bold" font-family="'Helvetica Neue', Helvetica, Arial-Unicode, Arial, Sans-serif">from the Noun Project</text></svg>