<svg xmlns="http://www.w3.org/2000/svg" xmlns:xlink="http://www.w3.org/1999/xlink" version="1.1" x="0px" y="0px" viewBox="0 0 100 125" enable-background="new 0 0 100 100" xml:space="preserve"><path fill="#000000" d="M20.3,37.9L20.3,37.9l-2.7,39.3c-0.2,1.3,0.3,2.7,1.1,3.7c0.8,1,2,1.6,3.2,1.7c0.1,0,0.2,0,0.3,0  c2.4,0.2,4.2-0.2,5.1-0.7c1.4-0.6,2.5-1.7,3.4-3.1c1.1-1.7,2.1-10,2.8-17.5l2,3.9c0.5,1.3,2.5,3.4,4.5,3.6c0.2,0,0.5,0,0.7,0  l17.4-1.4l-0.5,2.5c-0.8,4.5,1.3,9,5.2,11.2l1.3,0.7c1.3,0.7,2.8,0.8,4.1,0.3c1.4-0.5,2.4-1.6,2.9-2.9c2.9-7.4,8.7-21.7,9.4-23.1  l0.1-0.3l0-0.3c0-0.1,0-6.4-0.2-10.9C80.5,30,72.3,23.3,65.4,20.4c-0.9-0.4-10.2-2.9-11.8-2.9c-10.3-0.1-24.9,7.6-26,8.3  c-0.5,0.2-0.9,0.4-1.3,0.7c-4.4,2.9-4.9,6-5.5,9.4C20.6,36.4,20.5,37.1,20.3,37.9L20.3,37.9z M58.8,54.9c-1.6-1-3.4-1.6-5.3-1.7  l-0.2,0l-4.8,0.4L47,49.5l5.4-0.1c2.3,0.3,4.3,1.5,5.6,3.3C58.4,53.4,58.6,54.2,58.8,54.9z M53.9,47.1c-0.4-0.1-0.8-0.2-1.3-0.2l0,0  l-0.2,0L49,46.9l1.2-1C51.4,46.1,52.8,46.4,53.9,47.1z M34,56.9c0.3-3.1,0.5-5.7,0.6-7.1c1.1-3,2.4-4.3,4.1-4.3l7.5-0.1  c0.2,0,0.5,0,0.7,0l-3,2.6l2.9,8.2l6.6-0.6c2.3,0.1,4.4,1.2,5.8,2.9c0,1.3,0,2.6-0.2,3.8L58.6,65c-0.1,0-0.2,0.1-0.2,0.1l-18,1.5  c-0.5,0.1-2.1-1.2-2.5-2.2L34,56.9z M22.8,38.3c0.2-0.7,0.3-1.4,0.4-2c0.6-3.3,1-5.5,4.5-7.7c0.3-0.2,0.6-0.4,0.9-0.5l0.1-0.1  c0.1-0.1,15-8,24.9-8c1.2,0,9.9,2.4,10.8,2.7c6.2,2.7,13.6,8.7,13.6,22.2c0.1,4,0.2,9.3,0.2,10.6c-1.4,3.1-9,22.2-9.4,23l0,0  c-0.2,0.7-0.8,1.2-1.4,1.4c-0.7,0.3-1.4,0.2-2-0.2l-1.3-0.7c-3-1.7-4.6-5.1-4-8.5l1.4-7.7c1-6.5-0.9-13-4.7-16.7  c-2.4-2.3-6.1-2.8-8.1-3c-0.4,0-0.7-0.1-1-0.1c-0.2,0-0.4-0.1-0.7-0.1c-0.4,0-0.7-0.1-1.1-0.1L38.7,43c-4.3,0.1-5.9,4.5-6.5,6.1  l-0.1,0.2l0,0.2c-0.8,10.6-2.4,26.4-3.5,28.2c-0.6,1-1.4,1.7-2.3,2.1c-0.4,0.2-1.9,0.6-3.9,0.4c-0.7,0-1.3-0.4-1.7-0.9  c-0.4-0.5-0.6-1.2-0.6-1.9L22.8,38.3z"/><text x="0" y="115" fill="#000000" font-size="5px" font-weight="bold" font-family="'Helvetica Neue', Helvetica, Arial-Unicode, Arial, Sans-serif">Created by Stephanie Leeson</text><text x="0" y="120" fill="#000000" font-size="5px" font-weight="bold" font-family="'Helvetica Neue', Helvetica, Arial-Unicode, Arial, Sans-serif">from the Noun Project</text></svg>