<svg xmlns="http://www.w3.org/2000/svg" xmlns:xlink="http://www.w3.org/1999/xlink" version="1.1" x="0px" y="0px" viewBox="0 0 100 125" enable-background="new 0 0 100 100" xml:space="preserve"><path fill="#000000" d="M82,63.2c-0.9-4.5-3.1-8.8-6.3-12.5l-9.4-10.9l-3-4.6c-2-2.9-5.5-4.5-9-4.1l-17.4,1.8  c-1.5,0.2-2.9,0.9-3.9,2.1l-8.4,10.2c-1,1.2-1.4,2.8-1.1,4.3c0.3,1.5,1.3,2.8,2.7,3.6c2.7,1.4,5.7,1.5,6.6,1.5c0.2,0,0.3,0,0.3,0  c0.1,0,0.2,0,0.2-0.1c0,0,0.1,0,0.1,0c3.4,0.8,6.9-0.1,9.5-2.5l0.1-0.1c1-0.9,2.2-1.4,3.6-1.3l3,0.1c2.1,0.1,3.9,1.4,4.6,3.4  l2.2,6.3c0.1,0.3,0.2,0.7,0.2,1c0.1,1.2,0.2,3.5-1.1,6.1c-1.6,3.2-7.6,4.7-8.4,4.8c-0.3,0-0.6,0.1-1.4,0.3c-0.9,0.2-1.9,0.2-2.8-0.2  l-0.4-0.1c-1.3-0.4-2.3-1.4-2.8-2.6L38.2,67c-1.8-3.7-5.7-5.9-9.9-5.4l-1.3,0.2c-1.3,0.2-2.5,0.9-3.2,2c-0.7,1.1-1,2.5-0.6,3.8  L26.5,79c0.5,1.6,3.7,5.2,9.7,10.6c1.2,1.1,5.2,2.1,5.2,2.1c3,0.7,6.1,1.1,9.2,1.1c5.3,0,10.7-1,15.8-3.1  c12.4-4.2,15.3-16.1,15.9-22.9C82.4,65.8,82.3,64.7,82,63.2z M25.9,49c-0.2-0.8,0-1.6,0.6-2.2l8.4-10.2c0.6-0.7,1.4-1.1,2.2-1.2  l17.4-1.8c2-0.2,4,0.5,5.5,1.7c-1.8-0.8-3.6-1.2-5.9-0.9L42,35.6c-4,0.4-7.5,2.5-9.7,5.9l-3.6,5.4c-0.9,1.5-0.8,3.1,0.1,4.6  c-0.5-0.2-1.1-0.4-1.6-0.7C26.6,50.5,26,49.8,25.9,49z M79.8,66.5c-0.7,7.5-3.7,17.2-14.2,20.8c-7.8,3.1-15.9,3.7-23.6,1.9  c-1.4-0.3-3.7-1.2-4.1-1.6c-5.9-5.3-8.8-8.6-9-9.4l-3.2-11.4v0c-0.2-0.6-0.1-1.2,0.3-1.7c0.3-0.5,0.9-0.8,1.5-0.9l1.3-0.2  c0.3,0,0.6-0.1,0.9-0.1c2.7,0,5.2,1.5,6.4,4l1.3,2.7c0.9,1.8,2.4,3.2,4.2,3.8l0.4,0.1c1.4,0.5,2.8,0.6,4.2,0.2c0.5-0.1,1-0.2,1-0.2  c1.4-0.2,8.3-1.8,10.4-6.1c1.6-3.2,1.5-6.1,1.3-7.5c-0.1-0.5-0.2-1-0.3-1.5l-2.2-6.3c-1-2.9-3.8-5-6.9-5.1l-3-0.1  c-2-0.1-3.9,0.6-5.3,2l-0.1,0.1c-1.9,1.8-4.6,2.5-7.2,1.9c-1-0.2-1.8-0.7-2.4-1.3c-1.3-1.3-0.7-2.2-0.6-2.5l3.5-5.4  c1.8-2.7,4.6-4.4,7.8-4.8l12.1-1.2c3.3-0.3,5.3,0.7,9.3,3.9c0.2,0.2,0.5,0.4,0.7,0.6l9.5,11c2.9,3.4,4.9,7.3,5.7,11.3  C79.9,65.2,79.9,66.1,79.8,66.5z"/><text x="0" y="115" fill="#000000" font-size="5px" font-weight="bold" font-family="'Helvetica Neue', Helvetica, Arial-Unicode, Arial, Sans-serif">Created by Stephanie Leeson</text><text x="0" y="120" fill="#000000" font-size="5px" font-weight="bold" font-family="'Helvetica Neue', Helvetica, Arial-Unicode, Arial, Sans-serif">from the Noun Project</text></svg>