<svg xmlns="http://www.w3.org/2000/svg" data-name="Layer 1" viewBox="0 0 100 125" x="0px" y="0px"><defs><style>.cls-1{fill:#231f20;}</style></defs><title>Numbers</title><path class="cls-1" d="M84.61,7.43A8.56,8.56,0,0,0,73.3,5.62a7.35,7.35,0,0,0-3.25,4.91L63.74,34.14,63.35,9.63a8.16,8.16,0,0,0-8.12-8.19h0A8.16,8.16,0,0,0,47,9.56V30.36L43,12.12A8.19,8.19,0,0,0,33.66,5.3a8.17,8.17,0,0,0-6.78,9.38l3.56,20.61L25.85,24.07A7.49,7.49,0,0,0,12.2,22.46,7.22,7.22,0,0,0,11.49,28L18.58,53.2C18.51,57,18.49,97.35,45.13,98.59q1,0,1.95,0c19.41,0,28.38-13.9,32-22.38a8.15,8.15,0,0,0-2.33-9.56l0.89-19,8.46-34.42,0-.12A7.36,7.36,0,0,0,84.61,7.43Zm-1.42,5.23L74.72,47.16l-0.85,17.6L52.81,51.22a9,9,0,0,0-7.91-1.52,5.28,5.28,0,0,0-3.58,3.38c-1.78,5.52.24,12.53,4.91,17.05l10.2,8.29a1.5,1.5,0,0,0,1.89-2.33l-10-8.16C45,64.76,42.58,59,44.18,54a2.38,2.38,0,0,1,1.64-1.45,6.11,6.11,0,0,1,5.29,1.13l23.27,15a5.17,5.17,0,0,1,2,6.42c-3.47,8-12.12,21.4-31.09,20.53-24.45-1.14-23.7-42.13-23.69-42.55V52.82L14.38,27.21A4.24,4.24,0,0,1,14.8,24,4.49,4.49,0,0,1,23,25l9.89,24.23a1.48,1.48,0,0,0,.08.15l0,0.07a1.48,1.48,0,0,0,.29.34l0.06,0a1.5,1.5,0,0,0,.39.23l0.06,0a1.49,1.49,0,0,0,.47.08h0l0.26,0h0l0.15,0,0.15,0h0l0.09,0,0.16-.09,0.11-.09,0.11-.09,0.1-.12,0.09-.1,0.07-.13,0.07-.13s0-.09,0-0.13a1.47,1.47,0,0,0,0-.14s0-.1,0-0.15,0-.09,0-0.14a1.49,1.49,0,0,0,0-.18s0-.07,0-0.11L29.83,14.19a5.17,5.17,0,0,1,.92-3.86,5.11,5.11,0,0,1,3.37-2.06A5.21,5.21,0,0,1,40,12.67l7,31.68s0,0.08,0,.12a0.9,0.9,0,0,0,.13.29l0.06,0.11L47.41,45l0.07,0.08,0.13,0.11,0.09,0.07,0.14,0.07L48,45.42l0.15,0,0.13,0,0.17,0h0.26l0.17,0h0l0.1,0,0.18-.06,0.12-.07,0.13-.08,0.11-.09,0.11-.09L49.7,45l0.09-.12,0.07-.12,0.07-.13a1.51,1.51,0,0,0,0-.15s0-.09,0-0.13a1.5,1.5,0,0,0,0-.2s0-.06,0-0.09v0h0V9.57a5.16,5.16,0,0,1,5.16-5.13h0a5.16,5.16,0,0,1,5.13,5.21l0.56,35.3s0,0.06,0,.09a1.49,1.49,0,0,0,0,.16s0,0.09,0,.14l0,0.14,0.06,0.13,0.07,0.12,0.08,0.12L61.33,46l0.1,0.1,0.11,0.09,0.12,0.08,0.12,0.07,0.15,0.06,0.08,0h0l0.15,0,0.15,0h0.15l0.16,0,0.14,0,0.13,0,0.15-.07,0.11-.06,0.13-.09,0.1-.08,0.11-.11,0.08-.1,0.08-.13,0.06-.12a1.47,1.47,0,0,0,.06-0.15l0-.08L73,11.23l0-.15a4.38,4.38,0,0,1,2-3,5.56,5.56,0,0,1,7.29,1.17A4.39,4.39,0,0,1,83.19,12.66Z"/><text x="0" y="115" fill="#000000" font-size="5px" font-weight="bold" font-family="'Helvetica Neue', Helvetica, Arial-Unicode, Arial, Sans-serif">Created by Stephanie Leeson</text><text x="0" y="120" fill="#000000" font-size="5px" font-weight="bold" font-family="'Helvetica Neue', Helvetica, Arial-Unicode, Arial, Sans-serif">from the Noun Project</text></svg>