<svg xmlns="http://www.w3.org/2000/svg" data-name="Layer 1" viewBox="0 0 100 125" x="0px" y="0px"><defs><style>.cls-1{fill:#231f20;}</style></defs><title>Numbers</title><path class="cls-1" d="M82.79,58.37l-5.65-4.86,0.29-6.14L85.89,13l0-.12a7.36,7.36,0,0,0-1.54-5.76,8.56,8.56,0,0,0-11.3-1.82,7.35,7.35,0,0,0-3.25,4.91L64.18,31.27v-21a8.27,8.27,0,0,0-14-5.54,7.54,7.54,0,0,0-2.28,5.39l0,25.69a5.55,5.55,0,0,0-1.46-1.3,6.43,6.43,0,0,0-4.43-.83l-4.06.67a6,6,0,0,0-4.51,3.27l-4.88-12a7.4,7.4,0,0,0-13.55-1.49,7.32,7.32,0,0,0-.66,5.59l6.46,24.74c0.1,2.43,1.43,25.79,14.58,37.16a24.6,24.6,0,0,0,16.59,6,32.46,32.46,0,0,0,3.58-.2c22.56-2.51,27.19-19,29.68-27.89,0.16-.58.32-1.14,0.47-1.65A9.17,9.17,0,0,0,82.79,58.37ZM52.26,6.86A5.21,5.21,0,0,1,56,5.38H56a5.07,5.07,0,0,1,5.16,4.89v32a1.49,1.49,0,0,0,0,.21,1.5,1.5,0,0,0,2.93.58l8.6-32.21,0-.15a4.38,4.38,0,0,1,2-3A5.56,5.56,0,0,1,82,8.92,4.39,4.39,0,0,1,83,12.3L74.48,46.79,74.27,51l-4.66-4a8.46,8.46,0,0,0-6.44-2L50.81,46.41l0.06-36.3A4.56,4.56,0,0,1,52.26,6.86ZM38.37,37.29l4.06-.67A3.88,3.88,0,0,1,43,36.57,3.32,3.32,0,0,1,44.8,37a2.25,2.25,0,0,1,1.1,1.54l1.36,8.26a6.56,6.56,0,0,0-4,10.31l1.66,2.29a10.17,10.17,0,0,0,5,3.66,4,4,0,0,1-.95,2.83,5.65,5.65,0,0,1-3.46,1.91h0c-2.86.48-5.41-1.13-5.69-2.82l-4-24.19A2.93,2.93,0,0,1,38.37,37.29ZM82.76,67c-0.15.52-.31,1.09-0.48,1.68-2.46,8.76-6.57,23.43-27.12,25.72-7,.79-13-0.94-17.88-5.12C24.7,78.43,23.74,54.39,23.73,54.15L17.17,28.89a4.4,4.4,0,0,1,8.46-2.41l8,19.8,3.17,19.23c0.51,3.12,3.91,5.41,7.66,5.41A9.18,9.18,0,0,0,46,70.81a8.65,8.65,0,0,0,5.28-3,7,7,0,0,0,1.66-4.19l12,0.91a1.5,1.5,0,1,0,.23-3l-12.58-1a7.19,7.19,0,0,1-5.28-2.95l-1.66-2.29a3.58,3.58,0,0,1,2.5-5.66L63.51,48a5.47,5.47,0,0,1,4.15,1.28l6.75,5.81a1.5,1.5,0,0,0,.52.44l5.91,5.09A6.16,6.16,0,0,1,82.76,67Z"/><text x="0" y="115" fill="#000000" font-size="5px" font-weight="bold" font-family="'Helvetica Neue', Helvetica, Arial-Unicode, Arial, Sans-serif">Created by Stephanie Leeson</text><text x="0" y="120" fill="#000000" font-size="5px" font-weight="bold" font-family="'Helvetica Neue', Helvetica, Arial-Unicode, Arial, Sans-serif">from the Noun Project</text></svg>