<svg xmlns="http://www.w3.org/2000/svg" data-name="Layer 1" viewBox="0 0 100 125" x="0px" y="0px"><defs><style>.cls-1{fill:#231f20;}</style></defs><title>Numbers</title><path class="cls-1" d="M85.74,60.51l-9.21-7.93,0.29-6.2L85.28,12l0-.12a7.36,7.36,0,0,0-1.54-5.76A8.41,8.41,0,0,0,78.46,3a7.92,7.92,0,0,0-9.25,6.17l-6,22.38A6.23,6.23,0,0,0,57,26H52.41a6.23,6.23,0,0,0-5.92,4.33L42.14,10.76A8.16,8.16,0,1,0,26,13.32l3.74,22.12L25,24.87a7.4,7.4,0,0,0-13.15,6.77L19.69,54c0.12,2.75,1.54,25.81,14.57,37.09a24.6,24.6,0,0,0,16.59,6,32.46,32.46,0,0,0,3.58-.2C78.06,94.27,86,78.92,88.59,70A9.17,9.17,0,0,0,85.74,60.51ZM72.13,9.88l0-.15A4.93,4.93,0,0,1,78,6a5.41,5.41,0,0,1,3.42,2,4.39,4.39,0,0,1,.94,3.37L73.88,45.81l-0.22,4.3-1.1-.94a8.46,8.46,0,0,0-6.44-2l-2.86.32V42.61a1.5,1.5,0,0,0,.25-0.52ZM52.41,29H57a3.22,3.22,0,0,1,3.22,3.22V47.82l-9.51,1.06a6.68,6.68,0,0,0-1.56.37v-17A3.22,3.22,0,0,1,52.41,29Zm-3.22,34.1a10.19,10.19,0,0,0,6.12,2.66l4,0.31a5.11,5.11,0,0,1-4.24,2.27H54.35a5.16,5.16,0,0,1-5.16-5.16V63.09Zm36.52,6.07C83.3,77.36,76,91.48,54.11,93.92c-7,.79-13-0.94-17.88-5.12C23.65,77.92,22.69,53.88,22.68,53.63V53.4l-8-22.85-0.09-.2a4.4,4.4,0,0,1,5.2-6.24,4.33,4.33,0,0,1,2.55,2.08l8.9,19.7a1.79,1.79,0,0,0,3.16-1.28L29,12.83A5.17,5.17,0,0,1,29.92,9a5.14,5.14,0,0,1,7.2-1.13,5.24,5.24,0,0,1,2.08,3.48L46,41.84a1.49,1.49,0,0,0,.22.52v9.17a6.68,6.68,0,0,0-.73,1.24,6.51,6.51,0,0,0,.7,6.52l0,0v3.84a8.17,8.17,0,0,0,8.16,8.16h0.76a8.17,8.17,0,0,0,7.52-5l5.26,0.4a1.5,1.5,0,1,0,.23-3l-12.58-1a7.2,7.2,0,0,1-5.28-2.95l-1.66-2.29a3.58,3.58,0,0,1,2.5-5.66l15.37-1.71a5.46,5.46,0,0,1,4.15,1.28L83.79,62.78A6.16,6.16,0,0,1,85.71,69.16Z"/><text x="0" y="115" fill="#000000" font-size="5px" font-weight="bold" font-family="'Helvetica Neue', Helvetica, Arial-Unicode, Arial, Sans-serif">Created by Stephanie Leeson</text><text x="0" y="120" fill="#000000" font-size="5px" font-weight="bold" font-family="'Helvetica Neue', Helvetica, Arial-Unicode, Arial, Sans-serif">from the Noun Project</text></svg>