<svg xmlns="http://www.w3.org/2000/svg" data-name="Layer 1" viewBox="0 0 100 125" x="0px" y="0px"><defs><style>.cls-1{fill:#231f20;}</style></defs><title>Numbers</title><path class="cls-1" d="M82.82,12.68A7.92,7.92,0,0,0,76,3.85a8.39,8.39,0,0,0-6,1.26A7.36,7.36,0,0,0,66.73,10L59.81,35,53.61,8.46a8.16,8.16,0,0,0-16,3.23l4.78,23.9a6.08,6.08,0,0,0-3.12-.37l-3.48.5a6.1,6.1,0,0,0-5.15,5,5.82,5.82,0,0,0-3.24-.46l-5.3.76a5.85,5.85,0,0,0-5,6.62l1.25,8.7C18.23,58.63,17,80,27.21,91.29A20.34,20.34,0,0,0,42.47,98l2.7,0c22.94,0,30-6.88,33.79-31.38A13,13,0,0,0,74.46,55l1.06-7.32ZM44.59,5A5.18,5.18,0,0,1,50.68,9.1l7.6,32.5a1.5,1.5,0,0,0,2.95-.47l8.42-30.4,0-.16a4.39,4.39,0,0,1,2-3,5.42,5.42,0,0,1,3.87-.8c2.81,0.45,4.76,2.87,4.37,5.33l-7.31,35-0.91,6.27L47.18,45.58l-0.27-.08-0.73-5.11A6.16,6.16,0,0,0,46,39.5a1.49,1.49,0,0,0,.08-0.86L40.56,11.1A5.16,5.16,0,0,1,44.59,5ZM34.18,39.9a3.08,3.08,0,0,1,2-1.21l3.48-.5a3.14,3.14,0,0,1,.45,0,3.1,3.1,0,0,1,3.06,2.66l0.56,3.93c-4.11-.69-7.43,0-9.62,1.37l-0.56-3.92A3.08,3.08,0,0,1,34.18,39.9ZM20.66,45.1A2.83,2.83,0,0,1,22.53,44l5.3-.76a2.85,2.85,0,0,1,3.22,2.41l0.51,3.54a11.59,11.59,0,0,0,.24,8.38,16.35,16.35,0,0,0,1.37,2.78l0.48,3.37A2,2,0,0,1,31.92,66l-6.73,1h0a2.2,2.2,0,0,1-2.5-1.87L20.12,47.21A2.83,2.83,0,0,1,20.66,45.1ZM76,66.25C72.33,90.16,66.07,95.54,42.53,95a17.45,17.45,0,0,1-13.1-5.77C24.62,84,22.61,75.84,21.8,69a5.16,5.16,0,0,0,3.07,1A5.27,5.27,0,0,0,25.61,70l6.73-1a5,5,0,0,0,2.24-.94,5.62,5.62,0,0,0,5.07,3.17,5.77,5.77,0,0,0,.82-0.06h0l4.93-.71a5,5,0,0,0,3.07-1.69l6.81,2.06A1.5,1.5,0,1,0,56.15,68L40.6,63.26a12.2,12.2,0,0,1-6-6.76A8.57,8.57,0,0,1,34.46,50c0.88-1.88,5.24-3.68,11.8-1.56L70.93,56.3C74.24,57.6,76.61,62.25,76,66.25ZM36.78,64.41A12.62,12.62,0,0,0,39.47,66l5,1.52-4.44.64h0A2.7,2.7,0,0,1,37,65.92Z"/><text x="0" y="115" fill="#000000" font-size="5px" font-weight="bold" font-family="'Helvetica Neue', Helvetica, Arial-Unicode, Arial, Sans-serif">Created by Stephanie Leeson</text><text x="0" y="120" fill="#000000" font-size="5px" font-weight="bold" font-family="'Helvetica Neue', Helvetica, Arial-Unicode, Arial, Sans-serif">from the Noun Project</text></svg>