<svg xmlns="http://www.w3.org/2000/svg" xmlns:xlink="http://www.w3.org/1999/xlink" version="1.1" x="0px" y="0px" viewBox="0 0 100 125" enable-background="new 0 0 100 100" xml:space="preserve"><path fill="#000000" d="M85.5,62c0-0.1-2.6-6.9-5.1-14.3c0.5-0.8,0.9-1.7,1.1-2.6l3.3-15c0.3-1.5,0.1-3.1-0.8-4.4  c-0.8-1.3-2.1-2.2-3.7-2.6L75.2,22c-1.3-0.3-2.7-0.1-3.9,0.5c-1.1-3-4.2-9.9-9.3-9.2c-3.4,0.5-5.9,1.8-7.4,3.9  c-1.5,2.1-2,4.9-1.5,8.5c-0.5-0.2-1.1-0.4-1.7-0.4c-1.4-0.1-2.9-0.3-4.3-0.4c-1.5-0.1-3,0.3-4.2,1.3c-1.2,1-2,2.5-2.1,4.1  c0,0,0,0.1,0,0.1c-0.4-0.2-0.9-0.3-1.4-0.3c-1.4-0.2-2.7-0.3-4.1-0.4c-1.5-0.2-2.9,0.3-4.1,1.3c-1.3,1.1-2.2,2.8-2.4,4.7  c-0.5-0.3-1.1-0.5-1.7-0.6c-1.1-0.1-2.3-0.3-3.4-0.4c-1.3-0.2-2.6,0.2-3.7,1.1c-1.4,1.1-2.2,2.8-2.4,4.7c-0.6,7.6,0.1,15.2,2,22.5  c0.5,1.9,1.5,3.4,3,4.4c1.8,5.1,4.5,10.1,8.4,14.1c5.2,5.3,11.7,7.9,19.6,7.9c0,0,0,0,0.1,0c29,0,34.8-26.5,34.9-26.8l0.1-0.4  L85.5,62z M74,24.3c0.2,0,0.5,0,0.7,0.1l5.2,1.2c0.9,0.2,1.6,0.7,2.1,1.5c0.5,0.8,0.6,1.6,0.4,2.5l-3.3,15c-0.3,1.4-1.2,2.6-2.4,3.4  c-1.2,0.8-2.7,1-4.1,0.7l-1.1-0.3h0c-1.4-0.3-2.6-1.2-3.4-2.4c-0.8-1.2-1-2.7-0.7-4.1l3.3-15c0.2-0.9,0.7-1.6,1.5-2.1  C72.7,24.5,73.3,24.3,74,24.3z M43.3,30.4c0.1-0.9,0.5-1.8,1.2-2.4c0.6-0.5,1.3-0.8,2-0.8c0.1,0,0.2,0,0.3,0  c1.4,0.1,2.9,0.3,4.3,0.4c1.7,0.2,3,1.6,2.9,3.1c-0.8,9.9,0.3,19.7,3.2,29c0.7,2.2-0.8,4.7-3.3,5.8L53.2,66c-1.3,0.5-2.7,0.6-3.8,0  c-1.1-0.5-1.9-1.5-2.3-2.7C43.7,52.7,42.5,41.7,43.3,30.4z M31.3,36.2c0.1-1.4,0.6-2.6,1.5-3.4c0.6-0.5,1.2-0.7,1.9-0.7  c0.1,0,0.2,0,0.3,0c1.4,0.1,2.7,0.3,4,0.4c0.6,0.1,1.1,0.3,1.6,0.6c-0.4,10.3,0.8,20.5,3.8,30.2c-0.4,1.7-1.7,3.3-3.6,4.1  C39.5,68,38,68,36.7,67.3c-1.1-0.5-1.9-1.4-2.2-2.4C31.7,55.6,30.6,45.9,31.3,36.2z M20.2,40.6c0.1-1.2,0.6-2.3,1.4-2.9  c0.5-0.4,1-0.6,1.6-0.6c0.1,0,0.2,0,0.3,0c1.1,0.1,2.3,0.3,3.4,0.4c0.8,0.1,1.4,0.5,1.9,1.2c-0.3,7.7,0.5,15.3,2.3,22.7  c-0.1,1.8-1.2,3.5-2.9,4.1l-0.6,0.2c-0.9,0.4-1.9,0.3-2.9-0.1c-1.2-0.6-2.1-1.8-2.5-3.3C20.3,55.3,19.6,48,20.2,40.6z M50.7,87  C50.7,87,50.6,87,50.7,87c-7.2,0-13.2-2.4-17.8-7.2c-3.1-3.2-5.4-7.1-7.1-11.2c0.1,0,0.3,0,0.4,0c0.7,0,1.5-0.1,2.2-0.4l0.6-0.2  c1.3-0.5,2.3-1.4,3.1-2.4c0,0.1,0,0.1,0,0.2c0.5,1.7,1.8,3.1,3.5,4c1,0.5,2.1,0.7,3.2,0.7c1,0,2.1-0.2,3-0.6h0  c1.7-0.7,3.1-1.9,4-3.4c0.7,0.8,1.5,1.5,2.5,1.9c0.9,0.4,1.9,0.6,2.9,0.6c1,0,2-0.2,3-0.6l0.6-0.3c3.8-1.6,5.8-5.4,4.7-8.9  c-2.2-7.2-3.3-14.7-3.3-22.3l4.8,15.9c0.2,0.5,0.7,0.9,1.2,0.9c0.1,0,0.2,0,0.4-0.1c0.7-0.2,1-0.9,0.8-1.6l-7.7-25.6  c-0.7-3.5-0.4-6,0.9-7.8c1.1-1.5,3-2.5,5.7-2.9c3.4-0.5,6.1,5.9,6.9,8.4c-0.5,0.6-0.8,1.4-1,2.2l-3.3,15c-0.5,2.1-0.1,4.2,1,6  c1.1,1.8,2.9,3,5,3.5l1.1,0.3c0.6,0.1,1.2,0.2,1.7,0.2c1.5,0,2.9-0.4,4.2-1.2c0.1-0.1,0.3-0.2,0.4-0.3c2,6,4,11.3,4.6,12.8  C82.3,65.6,76.2,87,50.7,87z"/><text x="0" y="115" fill="#000000" font-size="5px" font-weight="bold" font-family="'Helvetica Neue', Helvetica, Arial-Unicode, Arial, Sans-serif">Created by Stephanie Leeson</text><text x="0" y="120" fill="#000000" font-size="5px" font-weight="bold" font-family="'Helvetica Neue', Helvetica, Arial-Unicode, Arial, Sans-serif">from the Noun Project</text></svg>