<svg xmlns="http://www.w3.org/2000/svg" xmlns:xlink="http://www.w3.org/1999/xlink" version="1.1" x="0px" y="0px" viewBox="0 0 100 125" enable-background="new 0 0 100 100" xml:space="preserve"><path fill="#000000" d="M77.2,54.8c-0.3-0.6-0.8-1.2-1.2-1.7c1.5-6.5,1.6-13.1,0.2-19.7c-0.7-3.4-4.3-5.7-7.8-5  c-1.4,0.3-2.8,0.5-4.1,0.8c-1.3,0.3-2.5,0.9-3.3,1.7v-21C60.9,5.5,57.4,2,53,2c-4,0-7.2,2.8-7.8,6.6c-1.4-1.3-3.3-2.1-5.4-2.1  c-4.4,0-7.9,3.5-7.9,7.9v4.2c-1.2-1.1-2.8-1.7-4.6-1.7c-3.9,0-7.1,3.2-7.1,7.1l0.1,27.4c0,0.9-1.2,24.1,10.8,37.1  c5,5.4,11.5,8.3,19.4,8.5c0.6,0,1.3,0,1.9,0C82.9,97,85,74.8,84.7,74.8C85.2,71.9,82.6,65.2,77.2,54.8z M61.4,51.9  c1.4-5.6,1.5-11.2,0.3-16.8c-0.1-0.6,0-1.3,0.4-1.8c0.5-0.8,1.5-1.4,2.6-1.6c1.4-0.3,2.7-0.5,4.1-0.8c0.3,0,0.5-0.1,0.8-0.1  c1.9,0,3.8,1.3,4.1,3.1c1.2,5.8,1.3,11.7,0.1,17.4c-1.8-1-4-1.4-6.1-0.9l-0.4,0.1C65,51,63,52.6,61.7,54.6  C61.3,53.8,61.1,52.9,61.4,51.9z M82.5,74.4c0,0.2-1.9,20.1-30.1,20.1c-0.6,0-1.2,0-1.8,0c-7.2-0.2-13.1-2.8-17.6-7.7  C21.8,74.5,22.9,51.7,22.9,51.4l-0.1-27.5c0-2.5,2.1-4.6,4.6-4.6c2.2,0,4.1,1.6,4.5,3.7v25c0,0.7,0.6,1.3,1.3,1.3s1.3-0.6,1.1-1.3  v-6.5h0.1V24c0-0.4,0-0.8-0.1-1.1v-8.5c0-3,2.4-5.4,5.4-5.4c3,0,5.4,2.4,5.4,5.4v32.8c0,0.7,0.6,1.3,1.3,1.3c0.7,0,1.3-0.6,1.3-1.3  v-2.1V14.4V9.9c0-3,2.4-5.4,5.4-5.4s5.4,2.4,5.4,5.4v38.2c0,0.6,0.4,1.1,1,1.2c-0.1,0.7-0.3,1.3-0.4,2c-0.6,2.2,0.1,4.4,1.7,6.1  c-0.2,1.4-0.1,2.9,0.4,4.3L65.7,75l2.4-0.8l-4.6-13.3c-0.5-1.7-0.3-3.5,0.5-5s2.3-2.6,4-3l0.4-0.1c2.7-0.6,5.5,0.6,6.8,3.1  C80.1,65.2,82.8,72.1,82.5,74.4z"/><text x="0" y="115" fill="#000000" font-size="5px" font-weight="bold" font-family="'Helvetica Neue', Helvetica, Arial-Unicode, Arial, Sans-serif">Created by Stephanie Leeson</text><text x="0" y="120" fill="#000000" font-size="5px" font-weight="bold" font-family="'Helvetica Neue', Helvetica, Arial-Unicode, Arial, Sans-serif">from the Noun Project</text></svg>