<svg xmlns="http://www.w3.org/2000/svg" xmlns:xlink="http://www.w3.org/1999/xlink" version="1.1" x="0px" y="0px" viewBox="0 0 100 125" enable-background="new 0 0 100 100" xml:space="preserve"><path fill="#000000" d="M79.4,65.3l-9.9-10.7V14.5c0-4.4-3.5-7.9-7.9-7.9c-2.1,0-4.1,0.9-5.5,2.2c-0.5-3.9-3.8-6.8-7.8-6.8  c-4,0-7.2,2.9-7.8,6.7c-1.4-1.4-3.4-2.2-5.5-2.2c-4.4,0-7.9,3.5-7.9,7.9v4.1c-1.2-1.1-2.8-1.7-4.6-1.7c-3.9,0-7.1,3.2-7.1,7.1  l0.1,27.4c-0.1,1.6-1.6,25.3,10.2,38.1c4.8,5.2,11.3,7.9,19.1,7.9c23.4,0,32.8-14.2,36.4-22.6C82.4,71.5,81.8,67.8,79.4,65.3z   M78.8,73.7c-3.3,7.9-12.1,21.1-34.1,21.1c-7.1,0-12.9-2.4-17.2-7.1c-11.3-12.2-9.6-36.1-9.6-36.3l0-0.1l-0.1-27.5  c0-2.5,2.1-4.6,4.6-4.6s4.6,2.1,4.6,4.6v17.5V48c0,0.7,0.6,1.3,1.3,1.3s1.3-0.6,1.3-1.3v-6.6V23.9v-9.5c0-3,2.4-5.4,5.4-5.4  s5.4,2.4,5.4,5.4V45v2.1c0,0.7,0.6,1.3,1.3,1.3s1.3-0.6,1.3-1.3V45V14.4V9.9c0-3,2.4-5.4,5.4-5.4s5.4,2.4,5.4,5.4v4.6v32.3v1.3  c0,0.7,0.6,1.3,1.3,1.3s1.3-0.6,1.3-1.3v-1.3V14.5c0-3,2.4-5.4,5.4-5.4s5.4,2.4,5.4,5.4V52c-1.5-1.2-3.3-2-5.3-2H46.4  c-2.3,0-4.3,1.2-5.4,3.1c-1.1,2-1.1,4.3,0,6.3l1.4,2.4c1.4,2.5,3.9,4.3,6.8,4.8L61.3,69c0.7,0.1,1.3-0.3,1.5-1  c0.1-0.7-0.3-1.3-1-1.5l-12.3-2.3c-2.1-0.4-4-1.7-5-3.6l-1.4-2.4c-0.7-1.2-0.7-2.6,0-3.8c0.7-1.2,1.9-1.9,3.3-1.9h15.3  c1.6,0,3.1,0.7,4.1,1.8L77.6,67C79.3,68.8,79.7,71.5,78.8,73.7z"/><text x="0" y="115" fill="#000000" font-size="5px" font-weight="bold" font-family="'Helvetica Neue', Helvetica, Arial-Unicode, Arial, Sans-serif">Created by Stephanie Leeson</text><text x="0" y="120" fill="#000000" font-size="5px" font-weight="bold" font-family="'Helvetica Neue', Helvetica, Arial-Unicode, Arial, Sans-serif">from the Noun Project</text></svg>