<svg xmlns="http://www.w3.org/2000/svg" xmlns:xlink="http://www.w3.org/1999/xlink" version="1.1" x="0px" y="0px" viewBox="0 0 100 125" style="enable-background:new 0 0 100 100;" xml:space="preserve"><style type="text/css">
	.st0{fill:#231F20;}
</style><path class="st0" d="M83.4,7.2c-1.3-1.6-3.1-2.7-5.1-3c-4.3-0.7-8.3,2-9,6l-7.2,25.9L55.6,8.6c-0.4-2.1-1.6-3.9-3.4-5  c-1.8-1.2-3.9-1.6-5.9-1.2c-4.3,0.9-7,5-6.2,9.3L45,36.1c-1.1-0.5-2.2-0.7-3.4-0.5l-3.5,0.5c-2.7,0.4-4.7,2.6-5,5.2  c-1-0.6-2.2-0.8-3.4-0.6l-5.3,0.8c-3.1,0.4-5.2,3.3-4.7,6.3l1.3,8.7c-0.2,2.1-1.4,23,8.6,34.3c3.9,4.4,9,6.8,15.2,7.1  c0.7,0,1.3,0,1.9,0c26.5,0,31.9-27.4,32-27.6l0.1-0.7l-2.4-2.2V47.3l8.5-34.4l0-0.1C85.2,10.8,84.6,8.8,83.4,7.2z M38.5,38.5  l3.5-0.5c0.2,0,0.3,0,0.5,0c0.7,0,1.4,0.2,2,0.7c0.7,0.5,1.2,1.3,1.3,2.2L46,43c-0.2,0-0.4,0-0.6,0.1c-1.8,0.3-3.1,1.3-3.8,2.8  c-2.7,5.7-0.8,13,2.6,17.3l3.8,4.4c-0.2,0.1-0.5,0.2-0.8,0.3l-4.9,0.7c-1.6,0.2-3.1-0.9-3.3-2.5l-2.1-14.5L36,45.4c0,0,0,0,0,0  l-0.4-3C35.3,40.5,36.6,38.8,38.5,38.5z M24.8,43.9l5.3-0.8c0.1,0,0.3,0,0.4,0c0.7,0,1.3,0.2,1.9,0.6c0.7,0.5,1.1,1.2,1.2,2l0.6,3.9  l2,14.1c0.1,0.6-0.1,1.2-0.4,1.7s-0.9,0.8-1.5,0.9l-6.7,1c-0.7,0.1-1.3-0.1-1.8-0.5s-0.9-1-1-1.6l-2.6-17.9  C21.9,45.7,23.1,44.1,24.8,43.9z M44.8,95.4c-5.5-0.3-10-2.4-13.4-6.3c-4.9-5.5-6.9-13.8-7.6-20.6c0.1,0.1,0.3,0.3,0.4,0.4  c0.9,0.6,1.9,1,3,1c0.2,0,0.5,0,0.7-0.1l6.7-1c0.9-0.1,1.7-0.5,2.4-1.1c0.9,2,2.8,3.3,5,3.3c0.3,0,0.5,0,0.8-0.1l4.9-0.7  c0.8-0.1,1.5-0.4,2.1-0.9l3.6,4.2c0.5,0.5,1.2,0.6,1.8,0.1c0.5-0.5,0.6-1.2,0.1-1.8l-9.1-10.4c-2.8-3.6-4.5-9.8-2.2-14.7  c0.4-0.9,1.3-1.2,2-1.4c1.7-0.3,3.7,0.4,5.1,1.8l25,23.1C75,74.7,68.8,96.6,44.8,95.4z M82.4,12.3l-8.5,34.5l0,18.3L52.8,45.6  c-1.2-1.2-2.7-2-4.2-2.3l-0.4-2.5c0,0,0,0,0,0v0l0-0.1c0,0,0-0.1,0-0.1l-5.6-29.1c-0.6-2.9,1.3-5.8,4.2-6.4c1.4-0.3,2.9,0,4.1,0.8  c1.2,0.8,2,2,2.3,3.5l7.6,32.5c0.1,0.6,0.6,1,1.2,1c0.1,0,0.2,0,0.3,0c0.5-0.1,0.9-0.6,0.9-1.1c0,0,0,0,0,0l8.4-30.7l0-0.1  c0.4-2.7,3.2-4.4,6.1-4c1.4,0.2,2.7,1,3.6,2.1C82.2,9.8,82.6,11.1,82.4,12.3z"/><text x="0" y="115" fill="#000000" font-size="5px" font-weight="bold" font-family="'Helvetica Neue', Helvetica, Arial-Unicode, Arial, Sans-serif">Created by Stephanie Leeson</text><text x="0" y="120" fill="#000000" font-size="5px" font-weight="bold" font-family="'Helvetica Neue', Helvetica, Arial-Unicode, Arial, Sans-serif">from the Noun Project</text></svg>