<svg xmlns="http://www.w3.org/2000/svg" xmlns:xlink="http://www.w3.org/1999/xlink" version="1.1" x="0px" y="0px" viewBox="0 0 100 125" enable-background="new 0 0 100 100" xml:space="preserve"><path fill="#000000" d="M79.8,70.2l-0.5-24.6l0-0.2l-7.1-21.8l2.3-9.7c1-4.2-1.6-8.5-5.8-9.5c-2.1-0.5-4.2-0.2-6,0.9  c-0.6,0.4-1.1,0.8-1.6,1.3c-0.5,0-1,0-1.5,0.1c-2.1,0.3-3.9,1.4-5.2,3c-1.3,1.6-1.8,3.6-1.5,5.6l2.7,7.9l-4.2,15.5  c-1.1-1.2-2.6-2-4.4-2h-3.5c-2.6,0-4.7,1.6-5.5,3.9c-0.9-0.7-2.1-1.2-3.4-1.2h-5.4c-3.1,0-5.6,2.5-5.6,5.6v11.6  c-0.3,5.8-0.3,24,8.6,34.3c3.8,4.4,8.8,6.7,14.8,7c0.8,0,1.5,0.1,2.2,0.1c26.2,0,31.8-23.2,31.9-23.4l0.1-0.4L79.8,70.2z M68.1,6.8  c2.9,0.7,4.7,3.6,4,6.5l-1.4,5.8l-2.1-6.5c-0.4-2.4-2.1-4.3-4.3-5.3C65.5,6.6,66.8,6.5,68.1,6.8z M56.5,11.2  c0.9-1.1,2.1-1.8,3.6-2.1c3-0.5,5.7,1.3,6.1,4l10.7,32.7l0.3,17.6l-7.9-20.5c-1-2.7-3.1-4.7-5.5-5.4c-0.2,0-0.4-0.1-0.5-0.1  l-7.7-22.8C55.3,13.4,55.6,12.2,56.5,11.2z M40.2,42.4c0-1.8,1.5-3.4,3.4-3.4h3.5c1.8,0,3.4,1.5,3.4,3.4v19.2c0,1.3-1,2.3-2.3,2.3  h-5c-1.6,0-3-1.3-3-3v-2.1V44.9V42.4z M29.3,41.8h5.4c1.7,0,3.1,1.4,3.1,3.1v13.9c0,1.3-1,2.3-2.3,2.3h-6.8c-1.4,0-2.5-1.1-2.5-2.5  v-1.9c0-1.1,0.1-1.8,0.1-1.9c0-0.2,0-0.4-0.1-0.6v-9.4C26.2,43.2,27.5,41.8,29.3,41.8z M47.2,95.3c-5.3-0.3-9.7-2.3-13.1-6.2  c-6.1-7-7.7-18.5-8-26.2c0.7,0.4,1.5,0.7,2.4,0.7h6.8c1,0,1.9-0.3,2.6-0.8c0.8,2.1,2.8,3.6,5.1,3.6h5c2.6,0,4.8-2.1,4.8-4.8v-19  l4.2-15.3l3.5,10.3c-0.5,0.2-1,0.5-1.5,0.8c-4.9,4-6.3,11.4-5.1,16.7l6.9,15.6c0.3,0.6,1,0.9,1.7,0.6c0.6-0.3,0.9-1,0.6-1.7  l-6.8-15.2c-0.9-4.5,0.2-10.7,4.3-14.1c0.5-0.4,1-0.5,1.4-0.5c0,0,0.1,0,0.1,0c0.3,0,0.6,0.1,0.8,0.1c1.6,0.4,3.1,1.9,3.8,3.8  l11.8,30.5C77.9,77.1,71.4,96.5,47.2,95.3z"/><text x="0" y="115" fill="#000000" font-size="5px" font-weight="bold" font-family="'Helvetica Neue', Helvetica, Arial-Unicode, Arial, Sans-serif">Created by Stephanie Leeson</text><text x="0" y="120" fill="#000000" font-size="5px" font-weight="bold" font-family="'Helvetica Neue', Helvetica, Arial-Unicode, Arial, Sans-serif">from the Noun Project</text></svg>