<svg xmlns="http://www.w3.org/2000/svg" xmlns:xlink="http://www.w3.org/1999/xlink" version="1.1" x="0px" y="0px" viewBox="0 0 100 125" enable-background="new 0 0 100 100" xml:space="preserve"><path fill="#000000" d="M76.4,68.7c0.1-0.2,0.1-0.3,0.1-0.5l-0.8-55.7c0-4.1-3.5-7.4-7.9-7.4c-2.3,0-4.4,0.9-5.9,2.4  c-1-3.2-4-5.5-7.5-5.5c-4.4,0-7.9,3.5-7.9,7.9l-0.1,26.8c0,0-0.1-0.1-0.1-0.1c-1.3-0.9-2.8-1.3-4.3-1.1l-3.5,0.5  c-2.7,0.4-4.7,2.6-5,5.1c-1-0.5-2.2-0.8-3.4-0.6l-5.3,0.8c-3.1,0.4-5.2,3.3-4.7,6.3l1.1,7.9C21,60.1,20.4,80,29.9,90.9  c3.8,4.4,8.8,6.7,14.8,7c0.8,0,1.5,0.1,2.2,0.1c26.2,0,31.8-23.2,31.9-23.4l0.1-0.4L76.4,68.7z M62.4,12.5c0-2.7,2.4-4.9,5.4-4.9  s5.4,2.2,5.4,4.9l0.7,51.1l-9.4-19.9c-0.5-1.3-1.2-2.4-2.2-3.4c0-0.1,0-0.2,0-0.2l0-3c0,0,0,0,0,0V12.5z M49,39.1L49,9.9  c0-3,2.4-5.4,5.4-5.4s5.4,2.4,5.4,5.4l0.1,28.7c-0.3-0.1-0.6-0.2-0.9-0.3c-1.7-0.5-3.4-0.2-4.6,0.9c-2.4,2-4,4.9-4.8,7.9l-0.9-6.6  c0-0.2-0.1-0.3-0.1-0.5C48.8,39.8,49,39.5,49,39.1z M38.9,38.5l3.5-0.5c0.2,0,0.3,0,0.5,0c0.7,0,1.4,0.2,2,0.7  c0.7,0.5,1.2,1.3,1.3,2.2l3.5,24.4c0.2,1.2-0.7,2.4-1.9,2.6l-4.9,0.7c-1.6,0.2-3.1-0.9-3.3-2.5l-2.4-16.5l-0.6-4.2c0,0,0,0,0,0  l-0.4-3C35.8,40.5,37.1,38.8,38.9,38.5z M25.2,43.9l5.3-0.8c0.1,0,0.3,0,0.4,0c1.5,0,2.8,1.1,3.1,2.7l0.6,4.2l2,13.9  c0.1,0.6-0.1,1.2-0.4,1.7s-0.9,0.8-1.5,0.9l-6.7,1c-0.6,0.1-1.3-0.1-1.8-0.5c-0.5-0.4-0.9-1-1-1.6l-1.4-9.7c0-0.3,0-0.5,0-0.6  c0-0.3-0.1-0.6-0.2-0.8l-1-6.8C22.4,45.7,23.6,44.1,25.2,43.9z M44.8,95.4c-5.3-0.3-9.7-2.3-13.1-6.2C27,83.7,25,75.5,24.2,68.5  c0.2,0.2,0.3,0.3,0.5,0.4c0.9,0.6,1.9,1,3,1c0.2,0,0.5,0,0.7-0.1l6.7-1c0.9-0.1,1.7-0.5,2.4-1.1c0.9,2,2.8,3.3,5,3.3  c0.3,0,0.5,0,0.8-0.1l4.9-0.7c2.6-0.4,4.4-2.8,4.1-5.4l-0.5-3.8l4.6,10.4c0.3,0.6,1,0.9,1.7,0.6c0.6-0.3,0.9-1,0.6-1.7l-6.8-15.2  C50.8,50.8,52,44.5,56,41.2c0.8-0.6,1.7-0.6,2.4-0.4c1.6,0.4,3.1,1.9,3.8,3.8l14,29.8C75.4,77.4,68.9,96.6,44.8,95.4z"/><text x="0" y="115" fill="#000000" font-size="5px" font-weight="bold" font-family="'Helvetica Neue', Helvetica, Arial-Unicode, Arial, Sans-serif">Created by Stephanie Leeson</text><text x="0" y="120" fill="#000000" font-size="5px" font-weight="bold" font-family="'Helvetica Neue', Helvetica, Arial-Unicode, Arial, Sans-serif">from the Noun Project</text></svg>