<svg xmlns="http://www.w3.org/2000/svg" xmlns:xlink="http://www.w3.org/1999/xlink" version="1.1" x="0px" y="0px" viewBox="0 0 100 125" enable-background="new 0 0 100 100" xml:space="preserve"><path fill="#000000" d="M87.8,50.6l-6-12.9c-0.7-1.5-1.9-2.6-3.5-3.2l-17.7-6.6c-3.5-1.3-7.5-0.6-10.4,1.8l-0.1,0.1l-0.3-0.1l-0.1,0  c-4.9-0.5-7.8,1.5-11.9,4.7c-0.4,0.3-0.8,0.7-1.1,1L26.4,47.3c-3.4,4-5.8,8.6-6.8,13.4c-0.3,1.6-0.4,2.8-0.3,3.8  c0.6,7.3,3.7,20.2,17,24.6c4.3,1.7,8.4,2.3,12.2,2.3c5.9,0,10.9-1.4,14.2-2.3c0.8-0.2,1.5-0.4,2-0.5c0,0,4.3-1.1,5.6-2.3  c6.5-5.8,10-9.7,10.5-11.4l3.5-12.3c0.4-1.4,0.2-2.8-0.6-4c0-0.1-0.1-0.1-0.1-0.1c0.2,0,0.3,0,0.5-0.1c1.6-0.4,3-1.4,3.7-2.9  C88.5,53.8,88.5,52.1,87.8,50.6z M81.9,61.8l-3.5,12.3c-0.3,1-3.4,4.5-9.8,10.2c-0.5,0.5-3.1,1.4-4.5,1.7c-0.6,0.1-1.3,0.3-2.1,0.6  c-5.2,1.4-14.7,4.1-24.9,0.1c-11.4-3.8-14.6-14.3-15.4-22.5c-0.1-0.7,0-1.8,0.3-3.1c0.9-4.4,3-8.6,6.2-12.3l10.3-11.8  c0.2-0.3,0.5-0.5,0.7-0.7c3.9-3.1,5.9-4.3,8.9-4.3c0.4,0,0.8,0,1.2,0.1l19.1,4.3l0.1,0c3.2,0.3,5.8,3.8,8,7.1l4.3,7.1  c0.7,1.2-0.1,2.7-0.7,3.3c-0.7,0.7-1.6,1.2-2.6,1.5c-3,0.7-6.8-2.4-8.3-3.9l-5.8-5c-1.6-1.4-3.6-2.2-5.7-2.1l-3.2,0.1  c-3.3,0.1-6.3,2.3-7.3,5.4l-2.3,6.9c-0.2,0.5-0.3,1.1-0.4,1.6c-0.2,1.5-0.2,4.6,1.4,8.1c2.6,5.3,17.1,4.2,18.3,3.8l0.4-0.1  c2-0.7,3.6-2.2,4.5-4.1l1.4-3c1.4-3,4.6-4.8,8-4.4l1.4,0.2c0.7,0.1,1.3,0.5,1.7,1C82,60.4,82.1,61.1,81.9,61.8z M50.9,53.4l8-6.4  c1.1,0.2,2.1,0.6,3,1.4l5.8,5c1.3,1.2,3.3,2.8,5.5,3.7c-2,1-3.7,2.6-4.7,4.8l-1.4,3c-0.6,1.3-1.7,2.3-3.1,2.8l-0.4,0.1  c-1.7,0.5-13.7,0.6-15.3-2.5c-1-2.1-1.3-4-1.3-5.3C47.9,57.3,49.8,54.6,50.9,53.4z M49.4,51.4l0.2-0.6c0.7-2.2,2.8-3.6,5-3.7l0.2,0  L49.4,51.4z M85.5,54.2c-0.4,0.8-1.1,1.4-2,1.6C82.9,56,82.3,56,81.6,56c0.1-0.1,0.3-0.2,0.4-0.3c1.5-1.6,2.3-4.1,1-6.3l-4.3-7.1  c-2.5-3.8-5.6-7.8-9.8-8.2l-15.4-3.5c1.9-0.9,4.2-1.1,6.3-0.3l17.7,6.6c0.9,0.3,1.7,1,2.1,1.9l6,12.9C85.9,52.5,85.9,53.4,85.5,54.2  z"/><text x="0" y="115" fill="#000000" font-size="5px" font-weight="bold" font-family="'Helvetica Neue', Helvetica, Arial-Unicode, Arial, Sans-serif">Created by Stephanie Leeson</text><text x="0" y="120" fill="#000000" font-size="5px" font-weight="bold" font-family="'Helvetica Neue', Helvetica, Arial-Unicode, Arial, Sans-serif">from the Noun Project</text></svg>